<?xml version="1.0" encoding="UTF-8" standalone="no"?>
<!DOCTYPE svg PUBLIC "-//W3C//DTD SVG 1.1//EN" "http://www.w3.org/Graphics/SVG/1.1/DTD/svg11.dtd">
<svg width="100%" height="100%" viewBox="0 0 580 752" version="1.1" xmlns="http://www.w3.org/2000/svg" xmlns:xlink="http://www.w3.org/1999/xlink" xml:space="preserve" xmlns:serif="http://www.serif.com/" style="fill-rule:evenodd;clip-rule:evenodd;stroke-linejoin:round;stroke-miterlimit:2;">
    <g>
        <path d="M294.6,702C291.9,701.2 290.1,699.5 290,697.9C290,697.5 291.7,696.3 293.8,695.2C295.8,694.2 302.2,690.8 307.9,687.7C313.6,684.6 321.5,680.9 325.6,679.4C329.6,678 333.5,676.1 334.1,675.4C335.9,673.2 329.7,671.2 318.3,670C312.9,669.5 305.1,668.4 301,667.5C292.7,665.7 278.4,663.1 273,662.3C238.4,657.4 221.6,652.2 212.3,643.7C208.5,640.3 209.4,639 215.4,639C218.4,639 221.1,638.6 221.4,638.1C221.7,637.7 219.1,636.5 215.7,635.5C212.3,634.6 207.3,633.1 204.6,632.2C201.9,631.4 194,629.3 187.1,627.5C180.2,625.7 172,623.3 169,622.1C166,620.9 159,618.3 153.5,616.4C148,614.4 142.6,612.5 141.5,612.1C136.3,610 127.9,608 124.3,608C122.1,608 118.9,607.3 117.3,606.5C115.6,605.7 111.4,604.3 107.8,603.4C104.3,602.5 99,600.6 96,599.2C91.6,597 90.4,596 90.2,593.8C89.9,591.5 90.3,591 92,591C93.1,591 95.5,590.3 97.2,589.4C101.6,587.1 123.8,587.2 129.2,589.4C133.5,591.2 139,591.5 139,589.9C139,589.3 135.8,583.7 132,577.4C123.2,563 118.5,553.1 115.9,543.2C113,532.6 113,530.4 115.5,530.8C118.5,531.3 120.3,533.5 127,545.5C130.3,551.6 133.5,557.2 134,558C137,563 142,573.4 142,574.6C142,575.3 143.1,578.4 144.5,581.4C145.9,584.4 147,587.3 147,587.9C147,589.8 152.3,595.1 155.9,596.6C163.1,599.8 175.6,603.2 199,608.5C204.8,609.8 213.1,611.8 217.5,613C221.9,614.2 227.1,615.5 229,615.9C246.5,620 264.8,625.4 298.8,636.6C307.7,639.6 315.5,642 316.1,642C316.7,642 319.8,643.1 322.9,644.4C326,645.7 331.7,647.8 335.5,649C343.1,651.5 354,656.7 354,657.9C354,659.4 351.5,661 349.2,661C344.4,661 347.8,663.5 355.6,665.8C361.7,667.5 364.9,667.9 369.5,667.4C372.8,667.1 381.6,666.5 389.1,666.1C396.5,665.7 403.1,665.1 403.7,664.7C404.3,664.3 405,656.2 405.4,644.9C406.5,616 410,599.5 420,576.7C425.6,564 426,563 426,561C426,557.4 424.1,558.9 421,564.8C419.3,567.9 417,571.9 415.9,573.7C412.2,579.5 394.8,595.4 388.2,598.9C385.3,600.4 378,600.3 378,598.8C378,598.1 381.1,595.3 384.8,592.5C400.3,581.1 404.6,576.5 409.4,566.7C411.8,561.6 414.1,556.4 414.5,555.1C414.9,553.8 416.5,550.6 418,548C419.5,545.5 421.3,541.6 422,539.5C423.6,534.8 428.6,526.7 435.2,518.4C437.8,515 440,512 440,511.7C440,510.8 446.1,501.8 448.3,499.5C449.3,498.4 451,494.4 452.1,490.5C453.2,486.7 455,481.1 456.1,478.2C457.1,475.2 458,470.8 458,468.2C458,465.3 458.8,462.3 460.4,459.6C462.7,455.6 462.7,455 463.3,419C464,373.4 463.2,359.3 459,345.6C449.5,314.5 445.9,307 440.6,307C438.6,307 429,296.3 429,294.1C429,293.6 431.4,293 434.3,292.8C440,292.3 444.3,294.4 446.1,298.4C447.1,300.6 451,306.5 453.2,309C456.5,312.9 461.9,327.7 466.6,345.5C468,351 470.5,358.9 472.1,363L475.1,370.4L474.5,418.5C473.8,468.8 472.4,486.5 468.6,493.9C466.5,497.8 464.2,497.9 462.9,494C461.8,490.9 461.2,490.5 459.5,491.8C457.8,493 455,499.9 455,503C455,504.8 453.9,507.2 452,509.4C450.3,511.3 448.6,514.7 448.1,517.1C446.8,523.6 442.3,538.5 440.7,541.7C439.9,543.2 437.8,549.9 436.1,556.4C434.3,563 432.2,569.3 431.4,570.4C430.6,571.5 430,573.1 430,574C429.9,574.8 429.1,577.3 428,579.5C426.9,581.7 426.1,585.1 426,586.9C426,589 424.9,591.9 423.5,594C421.4,597.1 420.8,599.4 420,609.1C419.5,615.4 418.1,625.2 417,631C415,641.6 414.7,650 415.8,660C416.5,665.2 416.7,665.6 420.5,667.5C423.4,668.9 427.4,669.6 435.4,670C442.6,670.3 446.5,670.9 446.7,671.7C447.3,673.5 440.2,677.8 433.4,679.7C429.7,680.8 424.8,681.4 420.4,681.2L413.2,681L411.7,684.8L410.2,688.5L409.1,685.7C408.5,684.1 408,682.4 408,681.9C408,680.3 403.6,679.2 398.9,679.5C396.5,679.7 393.9,679.9 393.3,679.9C392.5,680 392,681.4 392,683.5C392,686.8 391.8,687 388.6,687C386.7,687 382.4,686.3 379,685.4C375.6,684.5 371.8,684.1 370.6,684.4C369.5,684.8 364,686.2 358.5,687.6C353,689 346.2,691.3 343.4,692.6C340.6,693.9 334.3,695.9 329.4,697C324.5,698.1 318,699.7 315,700.5C307.9,702.5 298.3,703.2 294.6,702ZM233.3,640.3C232,640.1 229.8,640.1 228.3,640.3C226.7,640.5 227.8,640.7 230.5,640.7C233.3,640.7 234.5,640.5 233.3,640.3Z" style="fill:rgb(31,31,31);fill-rule:nonzero;"/>
        <path d="M363.2,642.3C362.7,641.3 361.5,638 360.6,635C359.2,630.2 356.1,623.4 350.7,613.5C347.1,607 343.2,598.1 343.7,597.6C345.1,596.2 349.5,600.1 354.1,606.8C362.3,618.5 369.6,639.3 366.9,642.6C365.4,644.5 364.3,644.4 363.2,642.3Z" style="fill:rgb(31,31,31);fill-rule:nonzero;"/>
        <path d="M375.6,640.9C375.3,640.1 373.1,633.4 370.7,626C368.2,618.6 365.9,611.2 365.6,609.5C365.2,607.9 364.7,605.7 364.4,604.8C363.6,602 365.9,602.7 369,606C372.9,610.2 376.8,622.9 378.3,636.8C378.7,640.2 376.4,643.5 375.6,640.9Z" style="fill:rgb(31,31,31);fill-rule:nonzero;"/>
        <path d="M235.1,584C232.7,582.9 230,582 229.1,582C228.2,582 226.4,581.1 225,580C223.6,578.9 222,578 221.4,578C218.8,578 178.4,556.6 176.1,554C175.2,553.1 170.9,549.3 166.5,545.7C157.7,538.4 152.7,533.3 149,528.1C147.7,526.2 144,521.8 140.8,518.1C137.6,514.5 135,511 135,510.4C135,508.7 131.7,503 130.7,503C129.7,503 130.9,508 132.6,510.7C133.4,511.9 134,513.4 134,514C134,514.6 135.3,517.9 136.8,521.3C138.4,524.7 140.2,529.1 140.9,531C141.6,532.9 142.7,535.6 143.4,537C144.1,538.4 145.5,542.2 146.4,545.5C147.4,548.8 149,554 150,557C150.9,560 153,566.6 154.5,571.5C156.1,576.5 158,581.3 158.8,582.2C160.1,583.8 160.1,584 158.5,584.6C157.5,585 156,584.9 155.1,584.3C152.9,583 133,542.7 133,539.7C133,538.9 131.8,536.6 130.4,534.5C129,532.4 127.1,528.9 126.2,526.6C125.3,524.4 123.4,520.5 122,518C120.5,515.5 116.6,505.9 113.1,496.6C106.7,479 105.8,473.8 109.3,473.2C113.3,472.4 115.8,474 118,478.5C119.2,481 120.6,483.2 121.1,483.6C121.6,483.9 122,484.9 122,485.8C122.1,487.9 125.8,492.5 126.7,491.6C127.1,491.2 126.9,490.1 126.3,489.2C125.7,488.2 124.9,485.9 124.5,484C124.1,482.1 123.5,480.1 123.1,479.5C122.1,478 119.3,468.4 117.1,459C113.3,442.6 112.1,436.4 110.4,423.7C109,413.4 108.3,410.7 106.8,409.9C105.8,409.4 104.6,409.2 104.1,409.5C102.8,410.2 98.7,408.5 96.5,406.4C95,404.9 92.9,404.6 81.6,404.6C66.1,404.6 65.3,405.3 72.4,412.2C81.4,421 83.8,424.7 87,435C90.3,445.6 90.6,446.1 100.2,451.4C102.8,452.8 105.8,454 106.8,454C109.7,454 111.4,456.4 110.1,458.8C109.2,460.6 108.3,460.7 102.9,460.3C97.9,459.8 96.8,460 97.2,461.1C98,463.6 102.5,465.1 105.5,464C106.9,463.5 109.2,463 110.6,463C112.6,463 113,463.5 113,465.9C113,470.2 109.5,472 101.3,472C93.1,472 87.5,469.7 83.7,464.9C81.2,461.8 81.2,461.4 82.7,460.3C83.6,459.6 85.6,459 87.2,459C91.5,459 90.6,456.5 85.5,454C80.9,451.8 77.2,447.7 72.7,439.8C69.7,434.6 69.5,433.1 71.1,428.5C72.3,425.4 72.1,425.1 66.2,419.1C60.9,413.7 59.6,412.9 57.3,413.4C52.6,414.3 50.6,411.9 50.8,405.7C50.9,401.5 50.3,399 48,394.6C44.2,387.3 43.9,380.7 47.2,378.8C48.6,378.1 53.3,377.6 58.5,377.5L67.5,377.5L67.8,372C68,369 67.9,364.6 67.5,362.4C67,358.7 66.4,358.1 62.7,356.4C60.4,355.4 57.7,353.6 56.8,352.5C54,349.2 51,339.6 49.9,330.8C46.4,301.9 45.7,293.9 45.3,280.3C44.9,267.2 45.1,264.8 46.5,262.6C47.9,260.6 49,260 52,260C54.1,260 56.2,259.4 56.8,258.7C58,257.3 56.2,231 54.9,231C54.4,231 52.4,232.1 50.4,233.5C46.2,236.3 41.5,236.7 38.2,234.4C35.2,232.3 35.4,229.5 39.4,219.2C46,202.1 58.9,185.2 81.5,164C82.4,163.2 85.4,160 88.3,157C91.2,154 97.1,148.3 101.5,144.4C111.1,135.9 140.3,114 142,114C142.6,114 147.9,111.3 153.7,107.9C159.5,104.6 165.8,101.6 167.6,101.3C175.1,100.1 175.7,106 168.9,114.2C165.2,118.6 163.8,123 166,123C166.5,123 169.4,120.9 172.4,118.3C180.6,111.2 182.8,109.7 191.5,105.2C206.6,97.4 214.4,94 217.2,94C218.8,94 222.2,92.9 224.8,91.6C227.4,90.3 230.6,88.9 232,88.6C233.4,88.2 235.9,87.3 237.5,86.5C248.4,81.6 253.1,79.4 266,73.3C283.4,65 299.7,59.5 304.6,60.3C306.4,60.6 309.6,62 311.7,63.4C316.2,66.5 317.6,66.6 332.1,64C354.8,60 377,62.5 377,68.9C377,70.3 374.9,71.9 369.8,74.4C363.1,77.7 356,83.1 356,84.8C356,85.7 347,88.7 342,89.5C324.3,92.2 324.2,92.2 321,95.5C318.3,98.2 317.9,99.5 317.6,104.8C317.4,108.5 317.7,111 318.3,111C318.9,111 322.4,109.2 326.2,107C330.1,104.8 333.5,103 333.9,103C334.4,103 338.3,101.9 342.6,100.5C346.9,99.1 352.1,98 354.2,98C358.5,98 359.8,96.6 357.7,94.2C355.4,91.5 355,89.3 356.5,87.4C357.7,85.7 359.3,85.5 373.5,85.8C382.1,85.9 390,86.4 391,87C392,87.5 393.9,88 395.2,88C398,88 402,90.6 402,92.4C402,93.2 400.5,94.3 398.8,95C397,95.7 394.2,96.9 392.5,97.5C387.7,99.5 377.3,102 374.1,102C369.5,102 366.3,103.6 365.6,106.3C364.8,109.6 360.4,114.6 355.8,117.6C353.7,118.9 352,120.7 352,121.5C352,123.5 356.9,123.5 359.7,121.5C362.9,119.3 379.1,116 387.1,116C393.2,116 394.6,116.4 397.1,118.5C398.7,119.8 401.7,121.2 403.8,121.5C405.8,121.8 409.3,122.6 411.5,123.1C413.7,123.7 416.4,124.1 417.5,124.1C420.9,124 425,126.1 425,128C425,129.1 423.7,130.2 421.8,131C420,131.6 417.2,132.8 415.5,133.6C408.9,136.8 391.6,140.3 382.1,140.4C373.2,140.5 372.6,140.6 370.7,143.2C369.7,144.6 369.1,146.3 369.4,146.9C370.4,148.5 376.2,148.3 380.5,146.4C384.1,144.9 384.3,145 388.1,147.6C390.2,149.1 392,150.6 392,151.1C392,151.5 395.9,153.9 400.8,156.3C413.1,162.5 415.7,164.2 419,168.6C422.7,173.5 422.8,176.8 419.3,179.5C416.3,182 416.4,182.9 421.4,196.5C422.8,200.4 424,205.1 424,207C424,209.5 425.5,212.7 428.9,218.1C435.5,228.2 435.9,231 430.9,231C428.2,231 428,231.3 428.5,233.2C429.2,235.2 435.9,245.1 439.9,249.8L441.8,252.1L442.5,248C443.5,242.1 441,223.9 438.4,219C437.7,217.6 436.2,213.9 435,210.7C433.7,207.6 432.4,204.7 431.9,204.4C430.5,203.6 430.9,200 432.4,200C436.2,200 443.6,210.5 450,225C452.4,230.5 452.4,230.8 452.4,262.3C452.3,296.3 452.4,295.9 447.4,296C445.7,296 445.4,295.4 445.4,292.8C445.4,291 444.8,286.6 444.2,283C443.5,279.4 443,272.2 443,267C443,261.8 442.6,257 442.2,256.3C441,254.4 437.9,257.4 437.1,261.2C436.2,265.7 433.6,265.9 429.7,261.8C425,256.9 406.3,239.9 402.1,236.8C396,232.2 393.4,231 384.3,229C362.3,223.9 346,219.6 340.5,217.3C333,214.2 328,210.5 328,208C328,204.6 331.8,203.6 344.5,203.7C357.1,203.7 366.9,205.3 380,209.5C384.1,210.8 390.9,212.8 395,214C399.1,215.2 404.6,217.3 407.3,218.6C409.9,220 412.8,221 413.7,220.8C415.1,220.6 414.7,219.8 411.9,217C410,215.1 406.3,210.8 403.6,207.5C394.6,196.3 381.4,184.7 372,179.9C366,176.8 364.7,176.5 355.5,176.4C349.9,176.3 343.2,175.5 340.3,174.7C336.2,173.5 333.7,173.3 328.3,174.1C317.8,175.5 310.8,177.2 306.9,179.1C296,184.5 270.2,187 263.9,183.3C260.8,181.5 260.5,179.3 263,177.9C267.3,175.6 271.6,174 274.6,173.4C278.1,172.8 279,171.3 276.6,170.4C274.6,169.6 226.2,173.8 221.9,175C220,175.6 214.6,176.4 209.9,176.9C188.6,179.2 168.6,192.6 138.7,224.7C135.3,228.4 132.2,230.5 128.4,232C118.7,235.6 117.4,234.3 122,225.4C126.1,217.6 148.4,191.6 152.1,190.5C153.9,189.9 155.7,186.3 154.7,185.3C154.4,185.1 150.4,184.7 145.8,184.6C141.2,184.5 136.5,183.9 135.3,183.2C132.1,181.4 132.4,177.6 136,173C139.1,169 139.8,166.6 137.9,165.4C136,164.3 137.5,157.8 140.9,152.4C145.8,144.4 144.5,142.8 137.4,147.7C132.8,150.8 117.4,158 115.4,158C113,158 113.8,162.7 116.6,164.7C118.7,166.3 119.2,167.6 119.7,172.9C120.3,179.1 120.3,179.2 125.6,183.1C133.6,189 133.7,190.2 126.4,205.8C124,210.9 122,215.7 122,216.4C122,217.2 121.3,218.3 120.5,219C119.7,219.7 119,220.8 119,221.5C119,222.2 117,226.5 114.6,231.1C112.2,235.7 109.5,241.7 108.6,244.3C107.7,246.9 105.9,251.3 104.5,254C103.1,256.8 100.4,263.2 98.6,268.4C96.7,273.5 94.2,279.6 93.1,281.8C91.9,284.1 89.6,289.8 87.9,294.5L84.8,303L87.5,311.5C90.3,320.7 90.4,320.7 98.5,321.2L102.5,321.5L103.3,327C103.7,330 104.4,342.4 104.9,354.5C106,378.8 107.5,387.1 113,397.9C115.8,403.5 116.6,406.4 119,418.5C119.4,420.7 120.2,423.9 120.8,425.5C122.4,430.3 124.3,438.4 127.3,453.5C128.8,461 134,481.5 136.3,489.1C137.1,491.6 139.8,496.6 142.4,500.1C145,503.6 149.8,510.6 153,515.6C157.4,522.4 162.1,527.8 171.9,537C186.3,550.6 193.5,555.9 201.4,558.9C204.2,559.9 208.8,562.2 211.5,563.9C214.3,565.6 218.3,567.9 220.5,569.1C222.7,570.3 228.2,573.4 232.7,576.1C237.2,578.9 242.3,581.5 244,582.1C245.7,582.7 246.9,583.7 246.7,584.4C246.1,586.3 239.7,586.1 235.1,584ZM129.5,498.1C129.1,496.4 128.4,495 127.9,495C127,495 127.6,499.3 128.7,501.3C129.7,503 130.2,501 129.5,498.1ZM83,397.6C83,396.2 82,393.9 80.7,392.5C78.7,390.1 77.5,389.8 70.3,389.3C63,388.8 62,388.9 61.4,390.5C60.3,393.2 62.3,395.4 66.6,396.3C68.7,396.8 72.5,397.7 75,398.5C81.8,400.5 83,400.4 83,397.6ZM395,181.5C395,177.8 386.7,169 382.1,167.8C373.5,165.6 361,161.2 358.6,159.7C356.5,158.3 354.9,158 352.1,158.5C347.4,159.4 340,162.6 340,163.8C340,164.8 347.2,166.3 357,167.5C360,167.9 363,168.5 363.5,168.9C364.1,169.3 366.6,170.4 369.3,171.4C371.9,172.4 378.4,175.4 383.7,178.1C394.3,183.5 395,183.7 395,181.5ZM323.5,163.8C324.8,162.6 322.6,160.2 319.8,159.6C318.1,159.3 311.7,159 305.6,159C298.9,159 292.6,158.4 289.8,157.6C284,155.8 280.8,156.5 281.2,159.3C281.6,162 285.1,162.9 300.5,163.9C312.8,164.8 322.6,164.7 323.5,163.8Z" style="fill:rgb(31,31,31);fill-rule:nonzero;"/>
        <path d="M296,582.2C290.8,581.6 282.8,578.8 283.6,578C285.8,576 363,572.8 363,574.8C363,575.4 360.4,576.2 357.3,576.6C354.1,577 349.8,577.9 347.7,578.6C343.4,580.1 302.2,583 296,582.2Z" style="fill:rgb(31,31,31);fill-rule:nonzero;"/>
        <path d="M232,564C231.2,563.5 227.8,561.9 224.5,560.4C221.2,559 216.9,556.6 215,555.1C213.1,553.7 210.1,551.6 208.4,550.5C202.9,547.1 195.7,541.8 191.4,538.1C189.1,536.1 186,533.7 184.6,532.7C181.8,530.8 181.1,528 183.4,528C185.4,528 197.5,534.5 201.8,537.9C211,545.2 230.7,558.5 233.8,559.4C235.3,559.9 236,560.9 236,562.6C236,565.1 234.6,565.6 232,564Z" style="fill:rgb(31,31,31);fill-rule:nonzero;"/>
        <path d="M321.9,558.8C325,557.4 329.8,556.6 338.9,555.9C345.8,555.4 353.4,554.8 355.8,554.4C358.6,554 360,554.1 360,554.9C360,555.5 359,556 357.7,556C356.5,556 354.4,556.7 353.1,557.7C350.9,559.2 333.5,561 321.5,560.9L317.5,560.8L321.9,558.8Z" style="fill:rgb(31,31,31);fill-rule:nonzero;"/>
        <path d="M241.3,558.7C240.1,558.1 237,556 234.3,554.1C226.3,548.4 218.7,543.1 215,540.6C209,536.5 196.7,524.3 197.4,523.1C199.1,520.4 205,522.6 217.5,530.8C221.4,533.3 227,537.5 230,540C237.8,546.6 249.2,554.7 252.3,555.9C253.8,556.5 255,557.6 255,558.5C255,559.7 253.7,560 249.3,560C246.1,560 242.5,559.4 241.3,558.7Z" style="fill:rgb(31,31,31);fill-rule:nonzero;"/>
        <path d="M272.1,497.1C270.2,495.9 271.2,494.6 277.7,490.3C287.1,484 298.9,480 322,475.1C326.7,474.1 332.5,472.2 334.9,471C339.1,468.7 339.6,468.7 349.4,469.8C354.9,470.5 361.1,471 363.1,471C367.4,471 380,474.7 380,475.9C380,477.4 376.7,477.7 370,476.8C351.6,474.6 346.3,474.6 340.8,477C327.2,482.8 318.5,485.2 309,485.8C299.9,486.3 298.9,486.6 287.3,492.1C274.2,498.4 274.2,498.4 272.1,497.1Z" style="fill:rgb(31,31,31);fill-rule:nonzero;"/>
        <path d="M152.2,487.6C149.9,482.9 147.6,477.4 147.1,475.3C146.6,473.2 145.5,469 144.7,466C143.8,463 142,455.1 140.5,448.5C134.7,421.6 133.1,412.8 132.5,402.2C132,391.8 132.5,391 138.3,392.6C141.9,393.7 141.5,392.4 146,418.5C147.7,427.9 149.6,438.7 150.4,442.5C151.1,446.4 152.3,453.3 152.9,458C153.6,462.7 155.1,471.2 156.2,477C158.6,489.1 159,495.2 157.4,495.7C156.8,495.9 154.4,492.3 152.2,487.6Z" style="fill:rgb(31,31,31);fill-rule:nonzero;"/>
        <path d="M412.3,487.8C411.2,486 411.7,424.3 413,408C414.3,391.9 416.9,375.8 418.4,374.3C418.7,373.9 419.5,374.1 420.1,374.7C420.8,375.4 420.8,379.3 420,387.6C419.4,394.2 418.7,413.5 418.5,430.5C418,460.6 416.9,477.5 414.9,485.3C413.8,489.3 413.5,489.6 412.3,487.8Z" style="fill:rgb(31,31,31);fill-rule:nonzero;"/>
        <path d="M384.5,472.6C380.9,469.8 370,464.1 366.2,463.1C362.2,462 363.5,460.5 368.3,460.6C375.9,460.7 385.4,465.1 388.8,470C390.5,472.6 390.7,473.5 389.8,474.2C388,475.3 387.9,475.3 384.5,472.6Z" style="fill:rgb(31,31,31);fill-rule:nonzero;"/>
        <path d="M428.4,461.6C428.1,460.2 428,446.8 428.2,431.8C428.6,410.8 429,403.6 430.2,400.6C433.4,392 435.6,396.3 434.7,409.3C434.3,413.8 433.6,425.8 433.1,436C431.9,457.4 431.2,464 429.9,464C429.4,464 428.8,462.9 428.4,461.6Z" style="fill:rgb(31,31,31);fill-rule:nonzero;"/>
        <path d="M292.1,442.4C282.8,438.4 285.1,435.2 300,431.9C301.9,431.5 306.1,430.2 309.3,429.1C312.4,428 317.8,426.8 321.3,426.5C324.7,426.2 331.5,425.4 336.4,424.8C344.7,423.6 345.3,423.4 346.2,420.8C347.4,417.5 348,417.4 355.6,420.1C358.8,421.2 362.9,422.5 364.5,422.9C372.3,425.1 373.4,427 368.5,430C366.6,431.2 364.8,433 364.5,434.2C364.1,435.4 361.6,437.2 358.4,438.7C353.4,441 351.6,441.2 337.2,441.4C328.6,441.5 319.7,442.2 317.5,442.8C311.7,444.5 296.2,444.2 292.1,442.4Z" style="fill:rgb(31,31,31);fill-rule:nonzero;"/>
        <path d="M242.6,438.1C237.2,436.6 233.7,434 235.1,432.5C236.2,431.5 251.4,431.8 254.3,432.9C255.9,433.5 258.8,433.8 260.8,433.5C268,432.4 269.3,437 262.3,438.9C257.1,440.4 249.6,440.1 242.6,438.1Z" style="fill:rgb(31,31,31);fill-rule:nonzero;"/>
        <path d="M221.2,437.3C217.8,436 207.3,409.6 208.5,405.1C208.9,403.7 209.7,398 210.2,392.5C212.4,368.7 212.8,364.3 213.5,361C216.3,345.8 219,346.5 219,362.2C219,370.8 218.4,374 214.4,387.5C213.1,391.6 213.1,393.3 214,397C214.7,399.5 215.5,404 215.9,407C216.3,410 217.6,414.5 218.8,417C222.9,425.6 225.3,436.2 223.3,437.3C222.8,437.5 221.9,437.5 221.2,437.3Z" style="fill:rgb(31,31,31);fill-rule:nonzero;"/>
        <path d="M239.8,426.2C238.4,424.7 236.2,422.6 235.1,421.6C233.9,420.5 233,418.8 233,417.9C233,416.4 233.6,416.2 236,416.7C238.9,417.2 239,417.2 239,413.1C239,410.3 238.4,408.4 237,407C234.7,404.7 234.5,401.5 236.5,398C237.3,396.6 237.9,394.7 238,393.7C238,389.8 250.5,367.2 256.3,360.6C260.3,355.9 261.7,355 264.4,355C266.5,355 268.4,354.2 269.6,352.9C274.1,347.9 287,342.1 295.9,341.1C300.6,340.6 301.5,340.2 301.5,338.5C301.5,336.6 300.9,336.5 291.5,336.6C286,336.6 278,337.1 273.6,337.6C265.2,338.7 265.4,338.5 259,347.8C257.3,350.2 256,352.3 256,352.5C256,353.6 246.8,365 245.9,365C245.4,365 244.8,366.2 244.4,367.8C243.4,372.1 237.4,385.3 233.1,392.5C228.6,400 228.6,400 229.9,404.4C230.6,406.7 231.4,410.1 231.7,412C232.2,415 232.1,415.3 230.7,414.2C229.9,413.5 227.9,410.1 226.2,406.7C224.6,403.2 222,399.6 220.6,398.7C219.2,397.7 218,396.3 218,395.6C218,394.8 219.7,391.6 221.9,388.4C224,385.1 227.9,377.3 230.5,371C237.4,354.2 244.4,339.9 247.5,336.2C250.1,333 254.2,331.9 255.5,334C256.6,335.8 259.2,335.1 262.7,332C266.4,328.7 268.6,328.3 271.5,330.4C273,331.4 277.5,331.7 289,331.8C302.8,331.8 305.8,331.5 316.3,328.9C324.5,326.9 330.7,326 336.4,326C344.3,326 344.9,326.2 350.7,329.9C356.9,333.9 361.2,338.7 362.5,343C363.2,345.4 366.6,350.9 368.1,352C369.6,353.2 371,357.1 371,360.2C371,363.5 376.1,377.4 382.5,391.5C387.1,401.7 389,411.1 386.9,413.6C385.3,415.6 381.6,415.3 379.6,413.1C378,411.4 378,410.7 379.1,407.7C380.2,404.6 380.1,403.9 378.1,400.7C376.1,397.5 375.7,397.2 373.2,398.1C370.6,399 369.9,398.5 363,391.9C358.9,387.9 354.3,384 352.8,383C348.7,380.5 346,376.5 345.2,371.8C344.5,367.9 344.1,367.4 340,365.8C337.5,364.9 334.2,364.1 332.7,364.1C331.1,364 328.4,362.9 326.6,361.5C322.9,358.7 321.9,358.5 317.3,360.2C315,361 313.7,361.1 313,360.4C311.3,358.7 313,355.9 316.1,355.3C317.7,355 319,354.4 319,353.9C319,352.5 315.6,352.2 308.5,352.9C304.7,353.4 302.5,353.8 303.7,353.9C304.9,353.9 306.2,354.5 306.6,355.2C307.5,356.7 301.6,362 298.9,362C295.4,362 291.3,364.8 290.5,367.7C289.6,371.4 288.2,373 285.9,373C283.7,373 280.5,368.6 281.3,366.7C281.6,365.9 281.5,364.8 281.1,364.1C280.1,362.5 272.1,364.5 271.4,366.5C271.1,367.3 271.9,369.8 273.1,372C275.9,377 275.3,378.5 268.5,381.9C264.1,384.2 263.8,384.6 264.3,387.6C265,391.9 263.6,393 256.4,393.3C249.4,393.6 248,394.3 248,397.6C248,401.2 246.3,404 244.1,404C241.1,404 240.2,406.1 240.4,412.5C240.5,417.5 241,419.3 243.8,423.2C245.5,425.8 247,428.1 247,428.4C247,430.1 242.1,428.6 239.8,426.2ZM373,391.4C373,390.5 367.5,377.1 364.3,370.3C363.3,368.2 359.8,363.2 356.5,359.2C348.4,349.1 347,346.9 347,343.9C347,340.9 340.7,335.3 336.3,334.4C333.6,333.9 323.7,335.7 317.5,337.8C315.9,338.4 312.5,339.5 310,340.3C306.7,341.3 305.5,342.2 305.5,343.6C305.5,345.2 306.5,345.6 311.6,346.1C318.3,346.7 324,349.5 324,352.2C324,354.6 326.7,354.5 328,352C329.3,349.6 332.7,349.4 336,351.7C342,355.7 351,364.3 354.5,369.4C356.6,372.5 358.7,375 359.2,375C359.6,375 361.4,377.5 363.1,380.5C364.8,383.5 366.8,386.3 367.5,386.8C368.1,387.2 369.2,388.5 369.9,389.8C370.9,391.8 373,392.9 373,391.4ZM266.5,374C267.3,372.7 264.5,371.6 262.4,372.4C260.4,373.2 261.5,375 264,375C265,375 266.2,374.5 266.5,374ZM292,356C293.6,354.4 293.8,353.5 293,352C292.4,350.9 291.5,350 291,350C290.2,350 283.4,352.8 282.1,353.7C281.9,353.9 282.5,354.9 283.5,356C285.8,358.6 289.4,358.6 292,356Z" style="fill:rgb(31,31,31);fill-rule:nonzero;"/>
        <path d="M270,426C258,425.1 252,423.2 250.1,419.8C248.7,417.4 248.8,416.9 252.9,410.6C257.5,403.6 262,399.2 269.3,394.8C271.7,393.3 276.4,389.6 279.7,386.7C284.7,382.3 286.9,381 292.4,379.6C296,378.7 299.8,377.3 300.8,376.4C305.1,372.6 313.6,367 315,367C315.8,367.1 317.6,367.7 319,368.5C320.4,369.3 322.9,369.9 324.5,370C330.5,370.1 335.5,372.2 339.5,376.4C357.8,395.5 362.9,403 363.4,411.5C363.5,414.2 363.2,414.5 360.2,414.8C358,415 356.1,414.5 354.9,413.4C352.7,411.4 348.1,411.2 346.6,413.1C345.3,414.7 338,416.9 330,418.1C320.1,419.6 307.6,421.8 303,423C300.5,423.6 296.9,424.5 295,425C289.7,426.4 280.6,426.7 270,426Z" style="fill:rgb(31,31,31);fill-rule:nonzero;"/>
        <path d="M388.2,356.2C383.1,349.8 381.8,347.7 376.1,336.7C369.9,324.8 367.6,321 362.8,315.3C360.2,312.2 359.9,309 362.2,309C362.8,309 367,312.9 371.6,317.8C376.2,322.6 380,325.9 380,325.2C380,324.4 378.8,320.9 377.4,317.3C374.5,310.2 375,308.3 379.4,309.4C381.1,309.8 382.6,311.6 384.4,315.3C385.7,318.1 388,322.5 389.3,325C398.5,341.7 402,351 399.1,351C397.1,351 395,349.7 395,348.6C395,347.9 392.8,344.5 390,341.1C387.3,337.7 385,334.4 385,333.9C385,333.4 384.6,333 384,333C382.8,333 384.8,338.6 389.4,347.7C393.4,355.8 393.5,356.3 391.7,357.8C390.7,358.6 389.9,358.2 388.2,356.2Z" style="fill:rgb(31,31,31);fill-rule:nonzero;"/>
        <path d="M158.4,352C157.7,348.7 155.1,348 153,350.5C152.3,351.3 150.6,352 149.3,352C146.7,352 146.5,350.8 148.1,345C148.4,344 147.6,343.4 145.6,343.2C143.1,342.9 142.8,342.6 143.4,339.9C144.7,333.2 160.5,313.9 168.9,308.8C170.9,307.6 174.1,305.3 176.1,303.8C179.4,301.2 180.1,301 185.4,301.6C188.5,302 191.3,302.6 191.5,303C191.7,303.4 189.7,307.1 187,311.3C184.2,315.4 182,319.1 182,319.5C182,319.8 184,318.7 186.4,317C188.9,315.4 191.3,314 191.9,314C193.8,314 193.1,317 190.2,320.8C188.6,322.8 184.7,328.1 181.5,332.5C174.8,341.6 161.7,355 159.5,355C159.2,355 158.7,353.7 158.4,352Z" style="fill:rgb(31,31,31);fill-rule:nonzero;"/>
        <path d="M195.4,328.8C194.9,328.1 196.7,325.8 200,322.8C205.3,318 208,316.8 208,319.3C208,321 202.2,327 200.6,327C199.8,327 199,327.7 198.6,328.5C197.9,330.3 196.4,330.4 195.4,328.8Z" style="fill:rgb(31,31,31);fill-rule:nonzero;"/>
        <path d="M418,306.6C409,303.3 398.8,298.1 397.4,296.2C395.6,293.8 396.8,292.7 400.4,293.4C402.1,293.8 405.8,294.5 408.7,294.9C417.6,296.4 431,304.3 431,308.1C431,309.7 424.7,309 418,306.6Z" style="fill:rgb(31,31,31);fill-rule:nonzero;"/>
        <path d="M133.6,297.8C133.5,297.1 132.7,294.9 132,293C128.4,282.8 128.4,268.1 132,260.9C134.4,256.3 135.3,256.1 138.4,259.5L140.8,262.1L142.3,257.8C143.1,255.4 144.5,251 145.5,248C150,233.7 168,215.3 184.9,207.4C191,204.6 194.1,204.6 200.8,207.4C205.6,209.4 207.5,209.8 209,209C211.8,207.5 220,207.8 225.6,209.7C231.3,211.6 240.9,217.8 243.9,221.5C247.2,225.9 244.9,228.4 238.9,227.1C234.8,226.2 209.5,227.5 204.5,228.9C198.8,230.4 188,236.9 183.3,241.6C176.8,248.2 170,259.4 165.5,270.9C160.8,283.2 158.8,285 149.8,285C142,285 141,283.8 141,274.4C141,268.6 140.7,266.8 139.5,266.3C137.4,265.6 137.3,265.7 135.8,271.3C134.7,275.6 134.8,276.7 136.9,282.8C139.8,291.5 139.6,298.4 136.2,298.8C135,299 133.8,298.6 133.6,297.8Z" style="fill:rgb(31,31,31);fill-rule:nonzero;"/>
        <path d="M238.2,295.7C237.6,295 236.6,292.4 235.9,290C234.8,286 234.9,285 236.9,281.3C239.8,275.6 239.4,276 269.2,246C291.5,223.5 296.1,219.3 299.7,218.2C306.6,216.2 313,216.7 318.8,219.6C323.1,221.7 324,222.6 324,224.8C324,228.3 324.8,229.4 328.6,231.3C332.2,233.2 348.4,249.9 350.5,254C352.8,258.4 355,259.2 360.4,257.6C364.2,256.4 366,256.4 372,257.6C380,259.1 390.3,263.3 394,266.6C395.4,267.8 397.5,269.3 398.8,269.9C401.5,271.3 402,277.7 399.4,278.7C397.5,279.4 388.3,276.4 385.9,274.4C385.1,273.6 383.6,273 382.7,273C381.8,273 380.9,272.6 380.6,272.1C379.6,270.6 366.3,266.7 364.5,267.4C363,267.9 363.1,268.6 365.8,273.3C368.9,278.8 371.1,286.2 371.4,292C371.5,295.4 371.4,295.5 368,295.5C364.7,295.5 364.5,295.3 364.2,291.7C363.8,287.4 359.7,279.8 351.7,268.6C348.6,264.3 346,259.8 346,258.7C346,257.5 342.9,253.6 338.3,249.1C334,244.9 327.6,238.1 324.1,234C320.6,229.9 317,226.1 316.1,225.7C315,225.2 312.3,225.7 308.8,227C304.3,228.7 302.3,230.2 299,234.5C296.7,237.5 288.5,245.4 280.8,252.2C266.7,264.6 256.6,274.3 247.6,283.9C243.7,288.1 242.9,289.6 243.3,291.7C243.6,293.2 243.6,295 243.3,295.7C242.6,297.4 239.6,297.4 238.2,295.7Z" style="fill:rgb(31,31,31);fill-rule:nonzero;"/>
        <path d="M261.8,295.2C257.2,293.5 252,289.6 252,287.7C252,287.2 254.6,284.2 257.8,281.1C261.1,278 263.9,275 264.1,274.4C264.8,272.7 279.5,261 281.1,261C281.9,261 283,260.6 283.6,260.1C284.1,259.7 286.6,258.6 289.2,257.7C293.7,256.2 293.9,256.3 297.4,258.6C303.8,263 303,264.6 286,281.8C275.2,292.7 270.3,297 268.7,296.9C267.5,296.9 264.4,296.1 261.8,295.2Z" style="fill:rgb(31,31,31);fill-rule:nonzero;"/>
        <path d="M347.2,291C345.9,289.9 343,288.5 340.8,287.8C336.1,286.4 324,273.8 317.3,263.2C312.4,255.6 312.1,253.7 315.2,251.6C319,248.9 321.7,249.7 327,254.8C331,258.6 332,260.3 332,262.8C332,265.7 332.5,266.3 336.8,268.2C349.3,273.8 350.3,274.6 354.1,280C356.2,283 358,286.5 358,287.7C358,292.7 351.6,294.7 347.2,291Z" style="fill:rgb(31,31,31);fill-rule:nonzero;"/>
        <path d="M189.7,287C189,285.2 187.8,284 186.8,284C183.8,284 182.8,280.6 185,277.7C186.1,276.3 187,274.8 187,274.3C187,270.8 211.9,253.1 218,252.3C221.4,251.8 221.8,252.1 223.8,255.4C225,257.4 226.5,259 227.1,259C227.8,259 228,259.9 227.7,261.2C227.2,262.8 227.9,264.1 230.2,266.2C233.1,268.7 233.2,269 231.4,269.7C230.3,270.2 226.1,272.4 222,274.6C217.9,276.9 212.9,279.1 210.9,279.4C208.8,279.8 206.6,280.8 205.9,281.6C204,283.9 194.2,290 192.4,290C191.5,290 190.3,288.7 189.7,287ZM206.5,272.4C216.2,267.1 218.6,266 220.2,266C225.4,266 226.6,262.9 222.1,261C218.6,259.6 216.7,260.5 206.6,268.2C196.5,275.9 196.5,277.9 206.5,272.4Z" style="fill:rgb(31,31,31);fill-rule:nonzero;"/>
        <path d="M319.6,282.9C313.5,277.2 312,275.2 312,272.9C312,269.1 314.3,269.1 317.8,272.8C324.9,280 331.8,288.4 331.4,289.2C330.1,291.3 326.6,289.4 319.6,282.9Z" style="fill:rgb(31,31,31);fill-rule:nonzero;"/>
        <path d="M232.8,256.8C228.8,254.7 228,253.3 230.5,252.4C232.3,251.7 241.3,256.8 240.5,258.1C239.6,259.4 237,259 232.8,256.8Z" style="fill:rgb(31,31,31);fill-rule:nonzero;"/>
    </g>
</svg>
