<?xml version="1.0" encoding="utf-8"?>
<!DOCTYPE svg PUBLIC "-//W3C//DTD SVG 1.0//EN" "http://www.w3.org/TR/2001/REC-SVG-20010904/DTD/svg10.dtd">
<svg version="1.0" xmlns="http://www.w3.org/2000/svg" width="580px" height="752px" viewBox="0 0 580 752" preserveAspectRatio="xMidYMid meet">
 <g fill="#fff3df">
  <path d="M0 376 l0 -376 290 0 290 0 0 376 0 376 -290 0 -290 0 0 -376z m312.5 321.4 c2.8 -0.8 9 -2.3 13.9 -3.4 4.9 -1.1 11.2 -3.1 14 -4.4 5.8 -2.7 24 -7.7 30.3 -8.4 3.7 -0.3 9.2 0.5 16.1 2.4 2 0.6 2.2 0.3 2.2 -2.9 0 -3.3 0.3 -3.7 3.5 -4.3 2 -0.3 6.6 -0.3 10.3 0 3.7 0.4 9.9 1 13.7 1.4 7 0.7 13.1 -0.3 20 -3.3 2.9 -1.3 2.7 -1.4 -4.1 -1.4 -7.6 -0.1 -16.5 -2.3 -18.3 -4.5 -0.7 -0.9 -1.4 -7 -1.8 -15.3 -0.4 -11.6 -0.2 -15.6 1.7 -25.3 1.2 -6.3 2.6 -16.4 3.1 -22.4 0.7 -9.3 1.2 -11.5 3.4 -14.7 1.9 -2.6 2.5 -4.7 2.3 -7.1 -0.3 -3 -0.7 -2.3 -4.1 6.2 -5.9 14.7 -9.4 34.6 -10.3 57.9 -0.4 11.4 -1.1 19.4 -1.7 19.8 -0.6 0.4 -7 1 -14.1 1.4 -7.2 0.4 -17.4 1 -22.6 1.4 -8.2 0.5 -10.6 0.2 -17.5 -1.7 l-8 -2.4 -0.1 -4.9 -0.1 -5 -5.9 -2.4 c-3.2 -1.3 -7.9 -3 -10.4 -3.7 -2.5 -0.6 -6.7 -2.1 -9.5 -3.2 -2.7 -1.1 -12.9 -4.6 -22.5 -7.6 -9.6 -3.1 -22.4 -7.2 -28.5 -9.1 -9.7 -3.2 -31.8 -9.3 -41.5 -11.6 -1.9 -0.4 -7.1 -1.7 -11.5 -2.9 -4.4 -1.2 -12.7 -3.2 -18.5 -4.5 -42.5 -9.6 -48.8 -12.3 -52.4 -22 l-1.5 -4 0 4.3 -0.1 4.2 -6 0 c-3.3 0 -7.7 -0.7 -9.7 -1.5 -5.4 -2.3 -21.9 -2 -27.3 0.4 l-4.2 1.9 6.9 2.5 c3.7 1.4 9.6 3.3 13.1 4.3 3.5 1 6.5 2.1 6.8 2.6 0.3 0.4 2.6 0.8 5.1 0.8 4.1 0 12.4 1.9 17.8 4.1 1.1 0.4 6.5 2.3 12 4.3 5.5 1.9 12.5 4.5 15.5 5.7 3 1.2 11.2 3.6 18.1 5.4 6.9 1.8 14.8 3.9 17.5 4.7 2.7 0.9 7.7 2.4 11.2 3.3 3.6 1.1 6.2 2.4 6.2 3.2 0 0.9 1.7 1.3 6.5 1.3 l6.5 0 0 3.5 0 3.5 -7.5 0 c-4.3 0 -7.5 -0.4 -7.5 -1 0 -0.5 -1.5 -1 -3.2 -1 l-3.3 0 4.5 2.9 c9.6 6 25.8 10.3 55 14.4 5.4 0.8 19.7 3.4 28 5.2 4.1 0.9 11.9 2 17.3 2.5 5.3 0.6 11.3 1.6 13.2 2.4 3 1.3 3.5 2 3.5 4.9 0 4.2 -0.7 4.9 -9.5 8.2 -7.6 2.8 -23 10.5 -28.3 14.1 -2.9 1.9 -3.1 2.3 -1.5 2.7 2.2 0.6 7.1 -0.1 13.8 -1.9z m-172.7 -117.6 c-1 -3.2 -6.9 -15.7 -8.8 -18.8 -0.5 -0.8 -3.2 -5.7 -6.1 -10.8 -2.8 -5.1 -5.3 -9.1 -5.5 -8.9 -0.6 0.5 2.1 7.9 5.3 14.7 2.6 5.5 15.1 27 15.8 27 0.2 0 -0.1 -1.5 -0.7 -3.2z m278.6 -18.5 c2.5 -5 2.8 -5.3 6.6 -5.3 l3.9 0 0.3 5.3 c0.3 5.2 0.3 5.1 3.7 -7.3 1.8 -6.9 4 -13.8 4.7 -15.3 1.6 -3.1 6.2 -18.1 7.4 -24 0.6 -3.1 0.5 -3.5 -0.6 -2.6 -0.8 0.6 -1.4 1.6 -1.4 2.1 0 0.6 -2.2 3.8 -4.8 7.2 -6.6 8.3 -11.6 16.4 -13.2 21.1 -0.7 2.1 -2.6 6.1 -4.1 8.7 -1.6 2.7 -3.2 6 -3.5 7.4 -0.4 1.4 -1.7 4.6 -3 7.1 -1.3 2.4 -2.4 4.7 -2.4 5 0 1.2 3.9 -4.5 6.4 -9.4z m-212.4 4.1 c0 -0.6 -6.5 -3.4 -7.7 -3.3 -0.4 0 1 0.9 3.2 1.9 4.8 2.2 4.5 2.1 4.5 1.4z m-59.9 -8.5 c-0.5 -1.3 -1.7 -5.1 -2.7 -8.4 -0.9 -3.3 -2.3 -7.1 -3 -8.5 -0.7 -1.4 -1.8 -4.1 -2.5 -6 -0.7 -1.9 -2.5 -6.3 -4.1 -9.7 -1.5 -3.4 -2.8 -6.8 -2.8 -7.5 0 -0.7 -0.7 -2.2 -1.5 -3.2 -0.8 -1.1 -1.5 -2.7 -1.5 -3.5 0 -0.9 -0.7 -2.9 -1.5 -4.4 -0.8 -1.5 -1.7 -4.4 -2.1 -6.4 -0.4 -2.1 -1.8 -4.9 -3 -6.2 -1.3 -1.4 -2.4 -3.3 -2.4 -4.3 0 -0.9 -0.4 -1.9 -0.9 -2.2 -0.5 -0.4 -1.9 -2.6 -3.1 -5.1 -1.2 -2.5 -2.8 -4.5 -3.6 -4.5 -1.4 0 -1 1.2 7.8 25 1.8 4.7 4.4 10.5 5.8 13 1.4 2.5 3.3 6.4 4.2 8.6 0.9 2.3 2.8 5.8 4.2 7.9 1.4 2.1 2.6 4.4 2.6 5.2 0 1.2 4.8 12.1 8.8 20 1.8 3.7 2.8 3.8 1.3 0.2z m37.3 -3.7 c-2.1 -1.6 -9.8 -8.7 -17 -15.8 -9.5 -9.3 -14.5 -15.1 -18 -20.9 -2.6 -4.4 -6.8 -10.6 -9.2 -13.8 -2.5 -3.2 -5.1 -8 -5.9 -10.5 -2.3 -7.7 -7.5 -28.2 -9 -35.7 -3 -15.1 -4.9 -23.2 -6.5 -28 -0.6 -1.6 -1.4 -4.8 -1.8 -7 -2.4 -12.1 -3.2 -15 -6 -20.6 -5.5 -10.8 -7 -19.1 -8.1 -43.4 -0.5 -12.1 -1.2 -24.5 -1.6 -27.5 l-0.8 -5.5 -4 -0.3 c-8.1 -0.5 -8.2 -0.6 -10.9 -9.4 -1.4 -4.5 -2.6 -9.8 -2.6 -11.8 0 -3.7 4.5 -17 8.1 -24.2 1.2 -2.3 3.6 -8.3 5.5 -13.4 1.8 -5.2 4.5 -11.6 5.9 -14.4 1.4 -2.7 3.2 -7.1 4.1 -9.7 0.9 -2.6 3.6 -8.6 6 -13.2 2.4 -4.6 4.4 -8.9 4.4 -9.6 0 -0.7 0.7 -1.8 1.5 -2.5 0.8 -0.7 1.5 -1.8 1.5 -2.6 0 -0.7 2 -5.6 4.5 -10.8 2.5 -5.3 4.5 -10.3 4.5 -11.1 0 -0.8 -2.4 -3.2 -5.4 -5.4 -5.3 -3.9 -5.3 -4 -5.9 -10.2 -0.5 -5.3 -1 -6.6 -3.1 -8.2 -2.2 -1.6 -2.6 -2.6 -2.6 -7.3 0 -4 0.4 -5.4 1.4 -5.4 2 0 17.4 -7.2 22 -10.3 2.7 -1.9 5.2 -2.7 8.2 -2.7 l4.4 0 0 4.1 c0 2.9 -0.9 5.7 -2.9 8.9 -2.6 4.3 -2.9 5.4 -2.4 10.8 0.5 5.4 0.3 6.3 -2.1 9.4 -1.4 1.9 -2.6 3.8 -2.6 4.1 0 1.3 8 2.7 11.9 2.1 2.2 -0.4 5.2 -0.4 6.6 0 2.2 0.6 2.5 1.2 2.5 5.1 0 2.9 -0.6 4.9 -1.7 5.7 -7.2 5.7 -28 29.1 -30 33.8 -1.2 2.9 -1.1 3.2 0.5 2.6 3.6 -1.4 7.9 -5.1 12.7 -10.9 5.1 -6.1 8.3 -9 26 -24.2 14 -12 26.8 -18 41.4 -19.6 4.7 -0.5 10.1 -1.3 12 -1.9 4.4 -1.2 51.4 -5.2 57.2 -4.8 4.4 0.3 4.4 0.3 4.7 4.4 0.3 4 0.2 4.2 -3.1 4.8 -1.9 0.4 -5.1 1.5 -7.2 2.5 -2.9 1.4 -3.4 1.9 -2 2.4 5.6 2.2 27 -1 35.4 -5.2 3.8 -1.9 16.5 -4.6 26.7 -5.7 4.3 -0.4 7.8 -0.1 11.7 1 5.8 1.7 19.2 2.2 18.3 0.7 -0.3 -0.5 -3.2 -1.2 -6.3 -1.5 -3.2 -0.4 -8.4 -1.2 -11.5 -1.8 l-5.8 -1.1 0 -3.9 c0 -3.7 0.3 -4 4.7 -6 6.8 -3 16.2 -3.6 19.8 -1.2 2.5 1.6 15 6 23.6 8.2 3.1 0.8 7.5 4.6 10.6 9 1.6 2.1 2.3 4.6 2.3 7.7 0 4.5 0 4.5 -3.6 4.5 -1.9 0 -4.5 -0.5 -5.7 -1.1 -1.2 -0.6 1.2 2.2 5.5 6.3 4.2 4 9.8 10 12.4 13.3 2.7 3.3 6.3 7.5 8.1 9.3 2.5 2.4 3.3 4.1 3.3 6.7 0 3.5 0 3.5 -4.6 3.5 -3 0 -6.3 -0.9 -9.3 -2.4 -2.5 -1.4 -8 -3.4 -12.1 -4.6 -4.1 -1.2 -10.9 -3.2 -15 -4.5 -11.9 -3.8 -22.8 -5.7 -32.6 -5.7 -10.3 -0.1 -12.8 0.7 -9.8 2.9 5.6 4.3 23.4 9.8 49.4 15.4 10.3 2.2 15.5 4.4 21.1 8.6 4.8 3.7 23.8 20.9 26.6 24.2 2.2 2.5 2.2 2.5 2.3 0.4 0 -1.2 0.6 -2.8 1.4 -3.6 1.2 -1.2 0.7 -2.3 -3.5 -8.3 -5.9 -8.3 -6.9 -10.5 -6.9 -14.9 0 -2.9 0.4 -3.4 2.5 -3.7 l2.6 -0.3 -4.6 -7 c-3.1 -4.8 -4.5 -8.1 -4.5 -10.5 0 -1.9 -1.2 -6.6 -2.6 -10.5 -5.4 -14.8 -5.9 -20.3 -2.2 -22.9 l2.1 -1.5 -2.4 -3.6 c-2.5 -3.7 -6.9 -6.7 -18.3 -12.3 -3.9 -1.9 -8.5 -5 -10.4 -6.8 -2.8 -2.7 -3.8 -3.2 -5.3 -2.3 -1.1 0.5 -5 0.9 -8.7 0.7 l-6.7 -0.3 -0.3 -4.1 c-0.2 -2.9 0.3 -4.7 1.8 -6.7 2.1 -2.6 2.5 -2.7 11.5 -2.7 9.9 0 29 -3.8 33 -6.6 1 -0.8 2.9 -1.4 4 -1.5 1.4 -0.1 1.1 -0.4 -1 -0.9 -6.5 -1.8 -11.2 -2.9 -14.7 -3.5 -2.1 -0.3 -5.1 -1.7 -6.7 -3 -2 -1.8 -4.1 -2.5 -7 -2.5 -5.5 0 -21.8 3.7 -24.4 5.5 -1.3 0.9 -4.5 1.5 -7.9 1.5 l-5.8 0 0 -4.5 c0 -4.1 0.3 -4.7 3.8 -6.9 4.6 -3 9 -8 9.8 -11.3 0.7 -2.7 3.9 -4.3 8.5 -4.3 3.4 0 14 -2.6 18.6 -4.6 1.7 -0.8 3.6 -1.4 4.2 -1.4 2.7 0 0.7 -1.9 -2.6 -2.5 -5.8 -1.1 -31.3 -1.7 -31.3 -0.8 0 0.5 0.5 1.4 1.1 2 0.6 0.6 0.9 2.8 0.7 4.9 l-0.3 3.9 -5.5 0.6 c-3 0.4 -8.4 1.6 -11.9 2.8 -3.5 1.2 -6.7 2.1 -7.1 2.1 -0.5 0 -3.9 1.8 -7.8 4 -5 2.9 -8 4 -11 4 l-4.1 0 0 -8.6 c0 -8.3 0.1 -8.6 3.4 -12.3 3.6 -4 3 -3.8 21.5 -6.6 5 -0.8 14 -3.8 14 -4.7 0 -1.7 7 -7.1 13 -9.9 7.2 -3.5 7 -4.1 -2.4 -5.8 -8.6 -1.6 -15.5 -1.4 -28.5 0.9 -15.8 2.8 -21.7 2.7 -26.4 -0.6 -2.1 -1.4 -4.6 -2.6 -5.5 -2.6 -3.5 -0.3 -20.2 5.8 -34.2 12.5 -12.9 6.1 -17.6 8.3 -28.5 13.2 -1.6 0.8 -4.1 1.7 -5.5 2.1 -1.4 0.3 -4.6 1.7 -7.2 3 -2.6 1.3 -6 2.4 -7.6 2.4 -2.8 0 -10.6 3.4 -25.7 11.2 -8.7 4.5 -10.9 6 -19.1 13.1 -4.5 3.9 -6.1 4.7 -9.4 4.7 l-4 0 0 -5.1 c0 -4.4 0.5 -5.6 4 -9.8 6.9 -8.2 4.7 -8.2 -9.4 -0.1 -5.7 3.3 -11 6 -11.6 6 -1.7 0 -30.9 21.9 -40.5 30.4 -4.4 3.9 -10.3 9.6 -13.2 12.6 -2.9 3 -5.9 6.2 -6.8 7 -21.9 20.5 -35.2 37.8 -41.5 53.6 -3.5 8.7 -3.6 10 -1.1 11.3 1.5 0.8 2.7 0.5 5.5 -1.4 2.3 -1.6 5.1 -2.5 7.5 -2.5 l3.8 0 1.3 16 c1.4 18.2 1.2 19 -5 19 -8.7 0 -9 7.5 -2.1 64.8 1.1 8.8 4.1 18.4 6.9 21.7 0.9 1.1 3.6 2.9 5.9 3.9 3.7 1.7 4.3 2.3 4.8 6 0.3 2.2 0.5 7.9 0.3 12.6 l-0.3 8.5 -9.2 0.2 c-9.4 0.2 -13.3 1.3 -13.3 3.8 0 0.7 1.3 4 3 7.2 2.3 4.4 3 7.1 3 11.4 0 6.2 0.6 6.9 6.3 6.9 1.7 0 4 0.8 5.1 1.8 1.8 1.5 1.9 1.5 0.8 0 -0.8 -0.9 -1.2 -3.5 -1 -5.9 0.3 -3.7 0.7 -4.4 2.8 -4.9 2 -0.5 1.6 -0.7 -2.2 -1.2 -6.8 -0.8 -8 -2.1 -7.6 -8.2 l0.3 -5.1 11.4 0 c11.1 0.1 11.4 0.1 13.7 2.8 1.7 2 2.4 4 2.4 7.2 l0 4.3 6.2 0.7 c3.8 0.5 6.9 1.4 8.2 2.6 1.1 1.1 3.4 1.9 5.1 1.9 5.4 0 6.1 1.4 8 15 0.9 6.9 2.3 15.7 3.1 19.5 4.2 19.5 7.9 33.7 9.5 36 0.4 0.6 1 2.7 1.4 4.8 0.4 2 1.1 4 1.6 4.3 0.5 0.3 0.9 1.8 0.9 3.5 0 1.6 0.4 2.9 1 2.9 0.5 0 1.2 1.7 1.6 3.8 0.4 2 1 3.9 1.3 4.2 1.3 1 4.1 6 4.1 7.3 0 0.7 2.6 4.2 5.8 7.8 3.2 3.7 6.9 8.1 8.2 10 3.7 5.2 8.7 10.3 17.5 17.6 4.4 3.6 8.7 7.3 9.5 8.2 1.9 2 6.2 5 7.4 5 0.5 0.1 -0.9 -1.2 -3 -2.7z m41.6 -11.7 c-0.7 -0.8 -4 -3.3 -7.4 -5.6 -6.3 -4.2 -3.6 -1.2 4 4.4 4.2 3 5.2 3.4 3.4 1.2z m243.9 -65.6 c1.5 -10 2 -21 2.5 -57.5 l0.6 -45.2 -2.7 -6.9 -2.8 -6.8 -0.3 49.3 -0.2 49.4 -2.5 4.2 c-1.7 2.9 -2.5 5.8 -2.5 8.9 0 2.5 -0.9 6.9 -2 9.7 -1.1 2.8 -2 5.5 -2 6 0 0.6 1.8 1 4 1 2.4 0 4 0.5 4 1.2 0 0.8 0.3 0.9 1 0.2 0.6 -0.6 1.9 -6.7 2.9 -13.5z m-153.8 6 c2.9 -0.6 6.6 -1.8 8.3 -2.5 l3.1 -1.5 -4 0.6 c-4.2 0.6 -15.9 4.4 -13.8 4.5 0.7 0 3.5 -0.5 6.4 -1.1z m-163 -7.4 c-0.5 -2.2 -1.4 -8 -2.1 -13 -0.7 -4.9 -1.9 -12.1 -2.6 -16 -0.8 -3.8 -2.7 -14.6 -4.4 -24 -3.9 -22.9 -4.4 -24.8 -5.8 -25.3 -1.8 -0.6 -1.6 11.6 0.3 20.8 0.9 4.1 2 9.5 2.5 12 2 9.8 6.2 28.8 7.5 33.5 0.8 2.8 1.7 6.1 2 7.5 2.3 9 4.2 12.2 2.6 4.5z m-50.4 -6.5 c-6.3 -1.1 -7.7 -2.4 -7.7 -7.1 0 -3.6 0.1 -3.8 3.7 -4.1 l3.7 -0.3 -3 -1.5 c-1.6 -0.8 -4.8 -2.7 -7.1 -4.2 -3.9 -2.7 -4.4 -3.5 -7.3 -12.9 -2 -6.4 -4.1 -11.1 -5.9 -13.1 l-2.8 -3.1 -0.6 6.2 c-0.4 5.2 -0.2 6.9 1.6 9.9 3.9 6.9 7.7 11 12.2 13.2 4.3 2.1 4.5 2.4 4.5 6.6 0 4.3 -0.1 4.4 -3.1 4.4 -2.8 0 -3 0.2 -1.8 1.7 2.3 2.7 9.1 5.3 13.9 5.2 l4.5 -0.1 -4.8 -0.8z m216 -28.9 c1.4 -0.7 8 -1.1 17.5 -1.1 14.1 0 15.7 -0.2 20.6 -2.5 2.8 -1.3 5.2 -2.9 5.2 -3.5 0 -0.5 0.9 -1.9 2 -3 1.4 -1.4 1.7 -2.1 0.8 -2.4 -0.7 -0.2 -2.9 -0.8 -4.8 -1.5 -8.8 -3.1 -9 -3.1 -9.9 -0.8 -0.8 2 -2.1 2.4 -9.7 3.5 -4.9 0.6 -11.7 1.4 -15.1 1.7 -3.5 0.3 -8.9 1.5 -12 2.6 -3.2 1.1 -7.6 2.4 -9.8 2.9 -2.2 0.5 -5.3 1.4 -7 2 l-3 1.2 3 1.4 c3.5 1.7 18.9 1.3 22.2 -0.5z m-19.7 -18.5 c6.4 -1.7 18.2 -3.9 29 -5.5 8.2 -1.2 15.4 -3.4 16.7 -5.1 1.8 -2.4 11.5 -2 14.4 0.5 l2.2 2 -0.7 -2 c-0.5 -1.1 -1.3 -3.6 -1.8 -5.5 -0.5 -1.9 -3.3 -6 -6.2 -9 -2.9 -3 -7.9 -8.6 -11.1 -12.3 -6.7 -7.8 -9.5 -9.6 -16.8 -10.4 -2.9 -0.3 -6 -1 -6.9 -1.5 -1.6 -0.8 -7 2.3 -13 7.6 -1 0.9 -4.8 2.3 -8.4 3.2 -5.5 1.4 -7.7 2.7 -12.7 7.1 -3.3 2.9 -8 6.6 -10.4 8.1 -7.1 4.3 -11.2 8.1 -15.4 14.3 -4.4 6.5 -4.2 6.8 3.6 9.2 6.8 2.1 28.5 1.7 37.5 -0.7z m-225.1 -2.2 c-1.3 -1.4 -3.3 -3 -4.4 -3.5 -1.1 -0.6 -0.2 0.6 1.9 2.6 4.6 4.1 6 4.6 2.5 0.9z m310.8 -12.6 c-0.2 -1.3 -0.4 -0.5 -0.4 1.7 -0.1 2.2 0.1 3.2 0.4 2.3 0.2 -1 0.2 -2.8 0 -4z m-139.7 -6.7 c0.5 -1.1 1 -3.1 1 -4.4 0 -3.6 1.8 -4.6 9 -4.9 l6.5 -0.3 0.3 -4.1 c0.2 -3.3 0.8 -4.4 2.9 -5.5 l2.6 -1.4 -3.9 -0.5 c-3.8 -0.5 -3.9 -0.6 -3.9 -4.5 l0 -4 4.8 -0.3 c4.5 -0.3 4.7 -0.5 4.7 -3.2 0 -3.5 2 -4.8 8.5 -5.7 3.2 -0.4 4.2 -0.9 3.6 -1.7 -0.5 -0.6 -1.1 -2.7 -1.3 -4.6 l-0.3 -3.5 -4.1 3.8 c-2.9 2.6 -5.1 3.7 -7.2 3.7 -5.3 0 -12.8 10.1 -23.7 32 -3 6.1 -3.9 11 -2 11 0.8 0 1.9 -0.9 2.5 -1.9z m-13.2 -10.6 c4.1 -7.4 9.8 -20.1 10.6 -23.7 0.4 -1.6 1 -2.8 1.5 -2.8 0.9 0 10.1 -11.5 10.1 -12.6 0 -0.6 3.9 -6.2 6.3 -9 l1.8 -2.2 -4.7 -0.4 c-4.2 -0.3 -4.9 -0.1 -6.9 2.7 -2.8 3.6 -9.5 17.7 -16 33.5 -2.7 6.3 -6.2 13.7 -7.8 16.3 -2.4 3.9 -2.7 5.1 -1.6 5.7 1.4 0.9 2.8 -0.6 6.7 -7.5z m147.8 3.8 c-2.8 -6.2 -3.6 -7.7 -3.1 -6 0.3 1 0.5 3.1 0.5 4.7 0 1.9 0.6 3 1.8 3.3 0.9 0.3 1.8 0.5 1.9 0.6 0.1 0 -0.4 -1.1 -1.1 -2.6z m-20.6 -12.2 c-0.5 -1.1 -1.4 -2.1 -1.9 -2.3 -0.6 -0.1 -2.6 -2.5 -4.7 -5.3 -3.1 -4.4 -3.5 -4.6 -2.9 -2.1 0.8 3.6 3.6 7.4 7.3 9.7 3.5 2.2 3.5 2.2 2.2 0z m12.7 -7.1 c-0.7 -1.7 -1.3 -2.6 -1.5 -2.1 -0.3 1 1.5 5.1 2.2 5.1 0.3 0 -0.1 -1.4 -0.7 -3z m-83 -8.5 c1 -3.3 1 -3.5 -1.1 -3.5 -1.9 0 -2.1 0.4 -1.8 3.5 0.2 1.9 0.7 3.5 1.1 3.5 0.4 0 1.2 -1.6 1.8 -3.5z m79.9 -5.1 c-0.3 -1.2 -1.2 -2.9 -1.9 -3.6 -2.4 -2.4 -5.4 -7.3 -6.2 -9.8 -1.3 -4.3 -5.6 -9.1 -11.8 -13.1 -5 -3.2 -6.9 -3.9 -11.1 -3.9 -6.6 0 -31.6 6 -31.6 7.6 0 1.2 1.4 1 9.3 -1.7 7 -2.5 16.5 -4 21.8 -3.7 4.5 0.3 6.3 1 9.7 3.8 2.8 2.2 4.2 4.1 4.2 5.7 0 3.3 1.4 5.6 7.8 13.2 3 3.5 6.4 8.1 7.6 10 l2.1 3.6 0.3 -2.9 c0.2 -1.5 0.1 -3.9 -0.2 -5.2z m-26.2 1.8 c-9.4 -7.6 -9.1 -7.5 -11.1 -5.5 -1.9 1.9 -1.9 2 0.3 3.6 1.3 0.9 3.5 1.7 5.1 1.8 1.5 0 3.7 0.4 4.8 0.9 3 1.3 3.2 1.1 0.9 -0.8z m-43.2 -2.7 c0.9 -0.4 1.2 -1.8 1 -4.5 l-0.4 -4 5.8 -0.1 c5.4 -0.2 5.6 -0.2 1.9 -0.8 -3.2 -0.5 -4.1 -1.1 -4.3 -3 -0.4 -2.2 -0.7 -2.3 -5.3 -1.8 -2.7 0.3 -5.7 1.1 -6.7 1.6 -1.4 0.9 -1.1 1 1.5 1.1 4 0 5.7 2.8 5 8.1 -0.3 2.2 -0.4 3.9 -0.2 3.9 0.2 0 0.9 -0.2 1.7 -0.5z m-127.4 -19.2 c2.3 -2.8 6.1 -7.4 8.3 -10.4 3.7 -5 3.9 -5.4 2 -5.7 -3.4 -0.5 -2.8 -6.3 1.4 -12.7 l3.5 -5.5 -2.4 0 c-1.4 0 -3.7 1 -5.3 2.3 -1.5 1.3 -4.5 3.3 -6.5 4.6 -4.8 2.8 -17.7 16.6 -21.7 23 -3 4.9 -3 5 -0.8 5.3 1.6 0.2 2.3 1.1 2.5 3.1 0.3 2.5 0.7 2.7 4.8 2.7 2.4 0 4.4 0.5 4.4 1.1 0 1.7 5.1 -2.4 9.8 -7.8z m98.4 -5.5 c-0.9 -0.9 -1.5 -0.9 -2.4 0 -0.9 0.9 -0.7 1.2 1.2 1.2 1.9 0 2.1 -0.3 1.2 -1.2z m114.4 -3.8 c3.9 0 4 -0.1 1.7 -4.3 l-1.8 -3.2 -0.3 3.3 c-0.3 2.8 -0.7 3.2 -3.2 3.2 -2.8 0 -2.9 0.1 -1.7 3.3 l1.2 3.2 0.3 -2.7 c0.3 -2.5 0.8 -2.8 3.8 -2.8z m59.5 -28.2 c-0.9 -2.5 -5.7 -6.5 -6.7 -5.6 -0.3 0.4 0.7 2.3 2.3 4.2 3.2 4.1 5.7 4.9 4.4 1.4z m-160.1 -23 c7.7 -7.8 13.9 -14.7 13.7 -15.3 -0.8 -2.2 -5.3 -2.8 -8.7 -1.1 -1.8 0.9 -3.8 1.6 -4.3 1.6 -1.3 0 -16.1 12 -16.6 13.4 -0.2 0.6 -2.6 3.2 -5.3 5.7 -4.5 4.3 -4.7 4.6 -3.1 6.1 1.8 1.5 6.7 3.6 9 3.7 0.7 0.1 7.6 -6.3 15.3 -14.1z m-38 1.7 c7.8 -8.5 18.3 -18.6 32.8 -31.3 7.7 -6.8 15.9 -14.7 18.2 -17.7 3.3 -4.3 5.3 -5.9 9.6 -7.5 3 -1.1 6.2 -2 7.2 -2.1 0.9 -0.1 0.3 -0.6 -1.5 -1.1 -2.3 -0.8 -4.5 -0.7 -8 0.3 -4.4 1.2 -7.2 3.7 -31.1 27.9 -14.5 14.6 -27.2 27.5 -28.3 28.8 -2.7 3.2 -4.9 7.8 -4.8 9.9 0.1 1.6 0.2 1.5 0.7 -0.2 0.4 -1.1 2.7 -4.3 5.2 -7z m109 7.6 c0 -0.5 -1.5 -3.1 -3.3 -5.7 -3.3 -4.8 -4.7 -5.7 -16.9 -11.2 -4.2 -1.9 -4.8 -2.6 -4.8 -5.2 0 -4.5 -8.3 -13.2 -11 -11.5 -1.5 0.9 5.6 11.4 14.2 20.7 5.6 6.2 8.6 8.7 11.5 9.6 2.1 0.6 4.7 1.8 5.8 2.6 2.2 1.7 4.5 2.1 4.5 0.7z m95.2 -43.1 c-0.7 -11.5 -1.4 -15.5 -3.1 -19.3 -2.6 -5.7 -3.4 -5.8 -2 -0.2 0.6 2.2 1.2 12.8 1.4 23.5 0.5 20.3 1.1 29.8 2.3 35.3 1.3 6 2.4 -24.1 1.4 -39.3z m-250.9 37.3 l4.2 -2.8 -3.2 -0.3 c-3.1 -0.3 -3.3 -0.6 -3.3 -3.9 0 -2 0.8 -4.6 1.7 -5.7 1 -1.2 -0.2 -0.3 -2.5 1.9 -2.4 2.2 -4.9 5.2 -5.7 6.8 -1.2 2.4 -1.2 2.7 0.5 2.7 1 0 2 0.9 2.3 2 0.7 2.6 0.9 2.5 6 -0.7z m-42.8 -2.1 c2.4 -1.5 3.8 -4 7 -12.3 7.2 -18.7 17 -31.1 30.2 -38.1 8.1 -4.4 15 -5.6 34.4 -6 7 -0.2 12.5 -0.6 12.2 -1.1 -1.2 -2.1 -12.5 -8.7 -17.6 -10.3 -4.8 -1.5 -6.3 -1.6 -9 -0.6 -4.7 1.7 -8.5 1.5 -13.6 -0.8 -5.2 -2.4 -7.1 -2.5 -11.4 -0.5 -16.2 7.6 -34.4 26.1 -38.9 39.5 -4.2 12.6 -4.8 15.3 -4.8 21.8 0 7.9 1.3 10.2 5.8 10.2 1.5 0 4.1 -0.8 5.7 -1.8z m62 -7.8 c3.3 -1.9 5 -3.2 3.8 -2.9 -2.5 0.7 -11.3 5.4 -11.3 6.1 0 0.9 1.8 0.2 7.5 -3.2z m143.5 0.6 c-0.6 -1.2 -1 -3.5 -0.8 -5.3 0.3 -3.1 0.5 -3.2 5.1 -3.5 5.7 -0.4 14.6 2.4 22.7 7 2.4 1.3 5.3 2.5 8 3.2 2.3 0.6 2.3 0.5 0.6 -0.6 -1.1 -0.7 -3.3 -2.4 -5 -3.9 -7.4 -6.1 -22.7 -10.8 -29.3 -9 -2.1 0.6 -5.3 1.1 -7 1.1 l-3.3 0 4.7 6.5 c4.7 6.6 6.3 8.2 4.3 4.5z"/>
  <path d="M297.5 166.9 c-6.6 -0.4 -13.6 -1.2 -15.5 -1.6 -3.4 -0.8 -3.5 -1 -3.8 -6 l-0.3 -5.2 3.8 -0.7 c2.3 -0.4 6.3 -0.1 10.8 0.9 4 1 12.4 1.8 19.8 1.9 14.2 0.3 14.7 0.6 14.7 6.9 0 3 -0.4 3.8 -2.2 4.3 -2.8 0.7 -11.2 0.6 -27.3 -0.5z"/>
 </g>
 <g fill="#1f1f1f">
  <path d="M294.6 702 c-2.7 -0.8 -4.5 -2.5 -4.6 -4.1 0 -0.4 1.7 -1.6 3.8 -2.7 2 -1 8.4 -4.4 14.1 -7.5 5.7 -3.1 13.6 -6.8 17.7 -8.3 4 -1.4 7.9 -3.3 8.5 -4 1.8 -2.2 -4.4 -4.2 -15.8 -5.4 -5.4 -0.5 -13.2 -1.6 -17.3 -2.5 -8.3 -1.8 -22.6 -4.4 -28 -5.2 -34.6 -4.9 -51.4 -10.1 -60.7 -18.6 -3.8 -3.4 -2.9 -4.7 3.1 -4.7 3 0 5.7 -0.4 6 -0.9 0.3 -0.4 -2.3 -1.6 -5.7 -2.6 -3.4 -0.9 -8.4 -2.4 -11.1 -3.3 -2.7 -0.8 -10.6 -2.9 -17.5 -4.7 -6.9 -1.8 -15.1 -4.2 -18.1 -5.4 -3 -1.2 -10 -3.8 -15.5 -5.7 -5.5 -2 -10.9 -3.9 -12 -4.3 -5.2 -2.1 -13.6 -4.1 -17.2 -4.1 -2.2 0 -5.4 -0.7 -7 -1.5 -1.7 -0.8 -5.9 -2.2 -9.5 -3.1 -3.5 -0.9 -8.8 -2.8 -11.8 -4.2 -4.4 -2.2 -5.6 -3.2 -5.8 -5.4 -0.3 -2.3 0.1 -2.8 1.8 -2.8 1.1 0 3.5 -0.7 5.2 -1.6 4.4 -2.3 26.6 -2.2 32 0 4.3 1.8 9.8 2.1 9.8 0.5 0 -0.6 -3.2 -6.2 -7 -12.5 -8.8 -14.4 -13.5 -24.3 -16.1 -34.2 -2.9 -10.6 -2.9 -12.8 -0.4 -12.4 3 0.5 4.8 2.7 11.5 14.7 3.3 6.1 6.5 11.7 7 12.5 3 5 8 15.4 8 16.6 0 0.7 1.1 3.8 2.5 6.8 1.4 3 2.5 5.9 2.5 6.5 0 1.9 5.3 7.2 8.9 8.7 7.2 3.2 19.7 6.6 43.1 11.9 5.8 1.3 14.1 3.3 18.5 4.5 4.4 1.2 9.6 2.5 11.5 2.9 17.5 4.1 35.8 9.5 69.8 20.7 8.9 3 16.7 5.4 17.3 5.4 0.6 0 3.7 1.1 6.8 2.4 3.1 1.3 8.8 3.4 12.6 4.6 7.6 2.5 18.5 7.7 18.5 8.9 0 1.5 -2.5 3.1 -4.8 3.1 -4.8 0 -1.4 2.5 6.4 4.8 6.1 1.7 9.3 2.1 13.9 1.6 3.3 -0.3 12.1 -0.9 19.6 -1.3 7.4 -0.4 14 -1 14.6 -1.4 0.6 -0.4 1.3 -8.5 1.7 -19.8 1.1 -28.9 4.6 -45.4 14.6 -68.2 5.6 -12.7 6 -13.7 6 -15.7 0 -3.6 -1.9 -2.1 -5 3.8 -1.7 3.1 -4 7.1 -5.1 8.9 -3.7 5.8 -21.1 21.7 -27.7 25.2 -2.9 1.5 -10.2 1.4 -10.2 -0.1 0 -0.7 3.1 -3.5 6.8 -6.3 15.5 -11.4 19.8 -16 24.6 -25.8 2.4 -5.1 4.7 -10.3 5.1 -11.6 0.4 -1.3 2 -4.5 3.5 -7.1 1.5 -2.5 3.3 -6.4 4 -8.5 1.6 -4.7 6.6 -12.8 13.2 -21.1 2.6 -3.4 4.8 -6.4 4.8 -6.7 0 -0.9 6.1 -9.9 8.3 -12.2 1 -1.1 2.7 -5.1 3.8 -9 1.1 -3.8 2.9 -9.4 4 -12.3 1 -3 1.9 -7.4 1.9 -10 0 -2.9 0.8 -5.9 2.4 -8.6 2.3 -4 2.3 -4.6 2.9 -40.6 0.7 -45.6 -0.1 -59.7 -4.3 -73.4 -9.5 -31.1 -13.1 -38.6 -18.4 -38.6 -2 0 -11.6 -10.7 -11.6 -12.9 0 -0.5 2.4 -1.1 5.3 -1.3 5.7 -0.5 10 1.6 11.8 5.6 1 2.2 4.9 8.1 7.1 10.6 3.3 3.9 8.7 18.7 13.4 36.5 1.4 5.5 3.9 13.4 5.5 17.5 l3 7.4 -0.6 48.1 c-0.7 50.3 -2.1 68 -5.9 75.4 -2.1 3.9 -4.4 4 -5.7 0.1 -1.1 -3.1 -1.7 -3.5 -3.4 -2.2 -1.7 1.2 -4.5 8.1 -4.5 11.2 0 1.8 -1.1 4.2 -3 6.4 -1.7 1.9 -3.4 5.3 -3.9 7.7 -1.3 6.5 -5.8 21.4 -7.4 24.6 -0.8 1.5 -2.9 8.2 -4.6 14.7 -1.8 6.6 -3.9 12.9 -4.7 14 -0.8 1.1 -1.4 2.7 -1.4 3.6 -0.1 0.8 -0.9 3.3 -2 5.5 -1.1 2.2 -1.9 5.6 -2 7.4 0 2.1 -1.1 5 -2.5 7.1 -2.1 3.1 -2.7 5.4 -3.5 15.1 -0.5 6.3 -1.9 16.1 -3 21.9 -2 10.6 -2.3 19 -1.2 29 0.7 5.2 0.9 5.6 4.7 7.5 2.9 1.4 6.9 2.1 14.9 2.5 7.2 0.3 11.1 0.9 11.3 1.7 0.6 1.8 -6.5 6.1 -13.3 8 -3.7 1.1 -8.6 1.7 -13 1.5 l-7.2 -0.2 -1.5 3.8 -1.5 3.7 -1.1 -2.8 c-0.6 -1.6 -1.1 -3.3 -1.1 -3.8 0 -1.6 -4.4 -2.7 -9.1 -2.4 -2.4 0.2 -5 0.4 -5.6 0.4 -0.8 0.1 -1.3 1.5 -1.3 3.6 0 3.3 -0.2 3.5 -3.4 3.5 -1.9 0 -6.2 -0.7 -9.6 -1.6 -3.4 -0.9 -7.2 -1.3 -8.4 -1 -1.1 0.4 -6.6 1.8 -12.1 3.2 -5.5 1.4 -12.3 3.7 -15.1 5 -2.8 1.3 -9.1 3.3 -14 4.4 -4.9 1.1 -11.4 2.7 -14.4 3.5 -7.1 2 -16.7 2.7 -20.4 1.5z m-61.3 -61.7 c-1.3 -0.2 -3.5 -0.2 -5 0 -1.6 0.2 -0.5 0.4 2.2 0.4 2.8 0 4 -0.2 2.8 -0.4z"/>
  <path d="M363.2 642.3 c-0.5 -1 -1.7 -4.3 -2.6 -7.3 -1.4 -4.8 -4.5 -11.6 -9.9 -21.5 -3.6 -6.5 -7.5 -15.4 -7 -15.9 1.4 -1.4 5.8 2.5 10.4 9.2 8.2 11.7 15.5 32.5 12.8 35.8 -1.5 1.9 -2.6 1.8 -3.7 -0.3z"/>
  <path d="M375.6 640.9 c-0.3 -0.8 -2.5 -7.5 -4.9 -14.9 -2.5 -7.4 -4.8 -14.8 -5.1 -16.5 -0.4 -1.6 -0.9 -3.8 -1.2 -4.7 -0.8 -2.8 1.5 -2.1 4.6 1.2 3.9 4.2 7.8 16.9 9.3 30.8 0.4 3.4 -1.9 6.7 -2.7 4.1z"/>
  <path d="M235.1 584 c-2.4 -1.1 -5.1 -2 -6 -2 -0.9 0 -2.7 -0.9 -4.1 -2 -1.4 -1.1 -3 -2 -3.6 -2 -2.6 0 -43 -21.4 -45.3 -24 -0.9 -0.9 -5.2 -4.7 -9.6 -8.3 -8.8 -7.3 -13.8 -12.4 -17.5 -17.6 -1.3 -1.9 -5 -6.3 -8.2 -10 -3.2 -3.6 -5.8 -7.1 -5.8 -7.7 0 -1.7 -3.3 -7.4 -4.3 -7.4 -1 0 0.2 5 1.9 7.7 0.8 1.2 1.4 2.7 1.4 3.3 0 0.6 1.3 3.9 2.8 7.3 1.6 3.4 3.4 7.8 4.1 9.7 0.7 1.9 1.8 4.6 2.5 6 0.7 1.4 2.1 5.2 3 8.5 1 3.3 2.6 8.5 3.6 11.5 0.9 3 3 9.6 4.5 14.5 1.6 5 3.5 9.8 4.3 10.7 1.3 1.6 1.3 1.8 -0.3 2.4 -1 0.4 -2.5 0.3 -3.4 -0.3 -2.2 -1.3 -22.1 -41.6 -22.1 -44.6 0 -0.8 -1.2 -3.1 -2.6 -5.2 -1.4 -2.1 -3.3 -5.6 -4.2 -7.9 -0.9 -2.2 -2.8 -6.1 -4.2 -8.6 -1.5 -2.5 -5.4 -12.1 -8.9 -21.4 -6.4 -17.6 -7.3 -22.8 -3.8 -23.4 4 -0.8 6.5 0.8 8.7 5.3 1.2 2.5 2.6 4.7 3.1 5.1 0.5 0.3 0.9 1.3 0.9 2.2 0.1 2.1 3.8 6.7 4.7 5.8 0.4 -0.4 0.2 -1.5 -0.4 -2.4 -0.6 -1 -1.4 -3.3 -1.8 -5.2 -0.4 -1.9 -1 -3.9 -1.4 -4.5 -1 -1.5 -3.8 -11.1 -6 -20.5 -3.8 -16.4 -5 -22.6 -6.7 -35.3 -1.4 -10.3 -2.1 -13 -3.6 -13.8 -1 -0.5 -2.2 -0.7 -2.7 -0.4 -1.3 0.7 -5.4 -1 -7.6 -3.1 -1.5 -1.5 -3.6 -1.8 -14.9 -1.8 -15.5 0 -16.3 0.7 -9.2 7.6 9 8.8 11.4 12.5 14.6 22.8 3.3 10.6 3.6 11.1 13.2 16.4 2.6 1.4 5.6 2.6 6.6 2.6 2.9 0 4.6 2.4 3.3 4.8 -0.9 1.8 -1.8 1.9 -7.2 1.5 -5 -0.5 -6.1 -0.3 -5.7 0.8 0.8 2.5 5.3 4 8.3 2.9 1.4 -0.5 3.7 -1 5.1 -1 2 0 2.4 0.5 2.4 2.9 0 4.3 -3.5 6.1 -11.7 6.1 -8.2 0 -13.8 -2.3 -17.6 -7.1 -2.5 -3.1 -2.5 -3.5 -1 -4.6 0.9 -0.7 2.9 -1.3 4.5 -1.3 4.3 0 3.4 -2.5 -1.7 -5 -4.6 -2.2 -8.3 -6.3 -12.8 -14.2 -3 -5.2 -3.2 -6.7 -1.6 -11.3 1.2 -3.1 1 -3.4 -4.9 -9.4 -5.3 -5.4 -6.6 -6.2 -8.9 -5.7 -4.7 0.9 -6.7 -1.5 -6.5 -7.7 0.1 -4.2 -0.5 -6.7 -2.8 -11.1 -3.8 -7.3 -4.1 -13.9 -0.8 -15.8 1.4 -0.7 6.1 -1.2 11.3 -1.3 l9 0 0.3 -5.5 c0.2 -3 0.1 -7.4 -0.3 -9.6 -0.5 -3.7 -1.1 -4.3 -4.8 -6 -2.3 -1 -5 -2.8 -5.9 -3.9 -2.8 -3.3 -5.8 -12.9 -6.9 -21.7 -3.5 -28.9 -4.2 -36.9 -4.6 -50.5 -0.4 -13.1 -0.2 -15.5 1.2 -17.7 1.4 -2 2.5 -2.6 5.5 -2.6 2.1 0 4.2 -0.6 4.8 -1.3 1.2 -1.4 -0.6 -27.7 -1.9 -27.7 -0.5 0 -2.5 1.1 -4.5 2.5 -4.2 2.8 -8.9 3.2 -12.2 0.9 -3 -2.1 -2.8 -4.9 1.2 -15.2 6.6 -17.1 19.5 -34 42.1 -55.2 0.9 -0.8 3.9 -4 6.8 -7 2.9 -3 8.8 -8.7 13.2 -12.6 9.6 -8.5 38.8 -30.4 40.5 -30.4 0.6 0 5.9 -2.7 11.7 -6.1 5.8 -3.3 12.1 -6.3 13.9 -6.6 7.5 -1.2 8.1 4.7 1.3 12.9 -3.7 4.4 -5.1 8.8 -2.9 8.8 0.5 0 3.4 -2.1 6.4 -4.7 8.2 -7.1 10.4 -8.6 19.1 -13.1 15.1 -7.8 22.9 -11.2 25.7 -11.2 1.6 0 5 -1.1 7.6 -2.4 2.6 -1.3 5.8 -2.7 7.2 -3 1.4 -0.4 3.9 -1.3 5.5 -2.1 10.9 -4.9 15.6 -7.1 28.5 -13.2 17.4 -8.3 33.7 -13.8 38.6 -13 1.8 0.3 5 1.7 7.1 3.1 4.5 3.1 5.9 3.2 20.4 0.6 22.7 -4 44.9 -1.5 44.9 4.9 0 1.4 -2.1 3 -7.2 5.5 -6.7 3.3 -13.8 8.7 -13.8 10.4 0 0.9 -9 3.9 -14 4.7 -17.7 2.7 -17.8 2.7 -21 6 -2.7 2.7 -3.1 4 -3.4 9.3 -0.2 3.7 0.1 6.2 0.7 6.2 0.6 0 4.1 -1.8 7.9 -4 3.9 -2.2 7.3 -4 7.7 -4 0.5 0 4.4 -1.1 8.7 -2.5 4.3 -1.4 9.5 -2.5 11.6 -2.5 4.3 0 5.6 -1.4 3.5 -3.8 -2.3 -2.7 -2.7 -4.9 -1.2 -6.8 1.2 -1.7 2.8 -1.9 17 -1.6 8.6 0.1 16.5 0.6 17.5 1.2 1 0.5 2.9 1 4.2 1 2.8 0 6.8 2.6 6.8 4.4 0 0.8 -1.5 1.9 -3.2 2.6 -1.8 0.7 -4.6 1.9 -6.3 2.5 -4.8 2 -15.2 4.5 -18.4 4.5 -4.6 0 -7.8 1.6 -8.5 4.3 -0.8 3.3 -5.2 8.3 -9.8 11.3 -2.1 1.3 -3.8 3.1 -3.8 3.9 0 2 4.9 2 7.7 0 3.2 -2.2 19.4 -5.5 27.4 -5.5 6.1 0 7.5 0.4 10 2.5 1.6 1.3 4.6 2.7 6.7 3 2 0.3 5.5 1.1 7.7 1.6 2.2 0.6 4.9 1 6 1 3.4 -0.1 7.5 2 7.5 3.9 0 1.1 -1.3 2.2 -3.2 3 -1.8 0.6 -4.6 1.8 -6.3 2.6 -6.6 3.2 -23.9 6.7 -33.4 6.8 -8.9 0.1 -9.5 0.2 -11.4 2.8 -1 1.4 -1.6 3.1 -1.3 3.7 1 1.6 6.8 1.4 11.1 -0.5 3.6 -1.5 3.8 -1.4 7.6 1.2 2.1 1.5 3.9 3 3.9 3.5 0 0.4 3.9 2.8 8.8 5.2 12.3 6.2 14.9 7.9 18.2 12.3 3.7 4.9 3.8 8.2 0.3 10.9 -3 2.5 -2.9 3.4 2.1 17 1.4 3.9 2.6 8.6 2.6 10.5 0 2.5 1.5 5.7 4.9 11.1 6.6 10.1 7 12.9 2 12.9 -2.7 0 -2.9 0.3 -2.4 2.2 0.7 2 7.4 11.9 11.4 16.6 l1.9 2.3 0.7 -4.1 c1 -5.9 -1.5 -24.1 -4.1 -29 -0.7 -1.4 -2.2 -5.1 -3.4 -8.3 -1.3 -3.1 -2.6 -6 -3.1 -6.3 -1.4 -0.8 -1 -4.4 0.5 -4.4 3.8 0 11.2 10.5 17.6 25 2.4 5.5 2.4 5.8 2.4 37.3 -0.1 34 0 33.6 -5 33.7 -1.7 0 -2 -0.6 -2 -3.2 0 -1.8 -0.6 -6.2 -1.2 -9.8 -0.7 -3.6 -1.2 -10.8 -1.2 -16 0 -5.2 -0.4 -10 -0.8 -10.7 -1.2 -1.9 -4.3 1.1 -5.1 4.9 -0.9 4.5 -3.5 4.7 -7.4 0.6 -4.7 -4.9 -23.4 -21.9 -27.6 -25 -6.1 -4.6 -8.7 -5.8 -17.8 -7.8 -22 -5.1 -38.3 -9.4 -43.8 -11.7 -7.5 -3.1 -12.5 -6.8 -12.5 -9.3 0 -3.4 3.8 -4.4 16.5 -4.3 12.6 0 22.4 1.6 35.5 5.8 4.1 1.3 10.9 3.3 15 4.5 4.1 1.2 9.6 3.3 12.3 4.6 2.6 1.4 5.5 2.4 6.4 2.2 1.4 -0.2 1 -1 -1.8 -3.8 -1.9 -1.9 -5.6 -6.2 -8.3 -9.5 -9 -11.2 -22.2 -22.8 -31.6 -27.6 -6 -3.1 -7.3 -3.4 -16.5 -3.5 -5.6 -0.1 -12.3 -0.9 -15.2 -1.7 -4.1 -1.2 -6.6 -1.4 -12 -0.6 -10.5 1.4 -17.5 3.1 -21.4 5 -10.9 5.4 -36.7 7.9 -43 4.2 -3.1 -1.8 -3.4 -4 -0.9 -5.4 4.3 -2.3 8.6 -3.9 11.6 -4.5 3.5 -0.6 4.4 -2.1 2 -3 -2 -0.8 -50.4 3.4 -54.7 4.6 -1.9 0.6 -7.3 1.4 -12 1.9 -21.3 2.3 -41.3 15.7 -71.2 47.8 -3.4 3.7 -6.5 5.8 -10.3 7.3 -9.7 3.6 -11 2.3 -6.4 -6.6 4.1 -7.8 26.4 -33.8 30.1 -34.9 1.8 -0.6 3.6 -4.2 2.6 -5.2 -0.3 -0.2 -4.3 -0.6 -8.9 -0.7 -4.6 -0.1 -9.3 -0.7 -10.5 -1.4 -3.2 -1.8 -2.9 -5.6 0.7 -10.2 3.1 -4 3.8 -6.4 1.9 -7.6 -1.9 -1.1 -0.4 -7.6 3 -13 4.9 -8 3.6 -9.6 -3.5 -4.7 -4.6 3.1 -20 10.3 -22 10.3 -2.4 0 -1.6 4.7 1.2 6.7 2.1 1.6 2.6 2.9 3.1 8.2 0.6 6.2 0.6 6.3 5.9 10.2 8 5.9 8.1 7.1 0.8 22.7 -2.4 5.1 -4.4 9.9 -4.4 10.6 0 0.8 -0.7 1.9 -1.5 2.6 -0.8 0.7 -1.5 1.8 -1.5 2.5 0 0.7 -2 5 -4.4 9.6 -2.4 4.6 -5.1 10.6 -6 13.2 -0.9 2.6 -2.7 7 -4.1 9.7 -1.4 2.8 -4.1 9.2 -5.9 14.4 -1.9 5.1 -4.4 11.2 -5.5 13.4 -1.2 2.3 -3.5 8 -5.2 12.7 l-3.1 8.5 2.7 8.5 c2.8 9.2 2.9 9.2 11 9.7 l4 0.3 0.8 5.5 c0.4 3 1.1 15.4 1.6 27.5 1.1 24.3 2.6 32.6 8.1 43.4 2.8 5.6 3.6 8.5 6 20.6 0.4 2.2 1.2 5.4 1.8 7 1.6 4.8 3.5 12.9 6.5 28 1.5 7.5 6.7 28 9 35.6 0.8 2.5 3.5 7.5 6.1 11 2.6 3.5 7.4 10.5 10.6 15.5 4.4 6.8 9.1 12.2 18.9 21.4 14.4 13.6 21.6 18.9 29.5 21.9 2.8 1 7.4 3.3 10.1 5 2.8 1.7 6.8 4 9 5.2 2.2 1.2 7.7 4.3 12.2 7 4.5 2.8 9.6 5.4 11.3 6 1.7 0.6 2.9 1.6 2.7 2.3 -0.6 1.9 -7 1.7 -11.6 -0.4z m-105.6 -85.9 c-0.4 -1.7 -1.1 -3.1 -1.6 -3.1 -0.9 0 -0.3 4.3 0.8 6.3 1 1.7 1.5 -0.3 0.8 -3.2z m-46.5 -100.5 c0 -1.4 -1 -3.7 -2.3 -5.1 -2 -2.4 -3.2 -2.7 -10.4 -3.2 -7.3 -0.5 -8.3 -0.4 -8.9 1.2 -1.1 2.7 0.9 4.9 5.2 5.8 2.1 0.5 5.9 1.4 8.4 2.2 6.8 2 8 1.9 8 -0.9z m312 -216.1 c0 -3.7 -8.3 -12.5 -12.9 -13.7 -8.6 -2.2 -21.1 -6.6 -23.5 -8.1 -2.1 -1.4 -3.7 -1.7 -6.5 -1.2 -4.7 0.9 -12.1 4.1 -12.1 5.3 0 1 7.2 2.5 17 3.7 3 0.4 6 1 6.5 1.4 0.6 0.4 3.1 1.5 5.8 2.5 2.6 1 9.1 4 14.4 6.7 10.6 5.4 11.3 5.6 11.3 3.4z m-71.5 -17.7 c1.3 -1.2 -0.9 -3.6 -3.7 -4.2 -1.7 -0.3 -8.1 -0.6 -14.2 -0.6 -6.7 0 -13 -0.6 -15.8 -1.4 -5.8 -1.8 -9 -1.1 -8.6 1.7 0.4 2.7 3.9 3.6 19.3 4.6 12.3 0.9 22.1 0.8 23 -0.1z"/>
  <path d="M296 582.2 c-5.2 -0.6 -13.2 -3.4 -12.4 -4.2 2.2 -2 79.4 -5.2 79.4 -3.2 0 0.6 -2.6 1.4 -5.7 1.8 -3.2 0.4 -7.5 1.3 -9.6 2 -4.3 1.5 -45.5 4.4 -51.7 3.6z"/>
  <path d="M232 564 c-0.8 -0.5 -4.2 -2.1 -7.5 -3.6 -3.3 -1.4 -7.6 -3.8 -9.5 -5.3 -1.9 -1.4 -4.9 -3.5 -6.6 -4.6 -5.5 -3.4 -12.7 -8.7 -17 -12.4 -2.3 -2 -5.4 -4.4 -6.8 -5.4 -2.8 -1.9 -3.5 -4.7 -1.2 -4.7 2 0 14.1 6.5 18.4 9.9 9.2 7.3 28.9 20.6 32 21.5 1.5 0.5 2.2 1.5 2.2 3.2 0 2.5 -1.4 3 -4 1.4z"/>
  <path d="M321.9 558.8 c3.1 -1.4 7.9 -2.2 17 -2.9 6.9 -0.5 14.5 -1.1 16.9 -1.5 2.8 -0.4 4.2 -0.3 4.2 0.5 0 0.6 -1 1.1 -2.3 1.1 -1.2 0 -3.3 0.7 -4.6 1.7 -2.2 1.5 -19.6 3.3 -31.6 3.2 l-4 -0.1 4.4 -2z"/>
  <path d="M241.3 558.7 c-1.2 -0.6 -4.3 -2.7 -7 -4.6 -8 -5.7 -15.6 -11 -19.3 -13.5 -6 -4.1 -18.3 -16.3 -17.6 -17.5 1.7 -2.7 7.6 -0.5 20.1 7.7 3.9 2.5 9.5 6.7 12.5 9.2 7.8 6.6 19.2 14.7 22.3 15.9 1.5 0.6 2.7 1.7 2.7 2.6 0 1.2 -1.3 1.5 -5.7 1.5 -3.2 0 -6.8 -0.6 -8 -1.3z"/>
  <path d="M272.1 497.1 c-1.9 -1.2 -0.9 -2.5 5.6 -6.8 9.4 -6.3 21.2 -10.3 44.3 -15.2 4.7 -1 10.5 -2.9 12.9 -4.1 4.2 -2.3 4.7 -2.3 14.5 -1.2 5.5 0.7 11.7 1.2 13.7 1.2 4.3 0 16.9 3.7 16.9 4.9 0 1.5 -3.3 1.8 -10 0.9 -18.4 -2.2 -23.7 -2.2 -29.2 0.2 -13.6 5.8 -22.3 8.2 -31.8 8.8 -9.1 0.5 -10.1 0.8 -21.7 6.3 -13.1 6.3 -13.1 6.3 -15.2 5z"/>
  <path d="M152.2 487.6 c-2.3 -4.7 -4.6 -10.2 -5.1 -12.3 -0.5 -2.1 -1.6 -6.3 -2.4 -9.3 -0.9 -3 -2.7 -10.9 -4.2 -17.5 -5.8 -26.9 -7.4 -35.7 -8 -46.3 -0.5 -10.4 0 -11.2 5.8 -9.6 3.6 1.1 3.2 -0.2 7.7 25.9 1.7 9.4 3.6 20.2 4.4 24 0.7 3.9 1.9 10.8 2.5 15.5 0.7 4.7 2.2 13.2 3.3 19 2.4 12.1 2.8 18.2 1.2 18.7 -0.6 0.2 -3 -3.4 -5.2 -8.1z"/>
  <path d="M412.3 487.8 c-1.1 -1.8 -0.6 -63.5 0.7 -79.8 1.3 -16.1 3.9 -32.2 5.4 -33.7 0.3 -0.4 1.1 -0.2 1.7 0.4 0.7 0.7 0.7 4.6 -0.1 12.9 -0.6 6.6 -1.3 25.9 -1.5 42.9 -0.5 30.1 -1.6 47 -3.6 54.8 -1.1 4 -1.4 4.3 -2.6 2.5z"/>
  <path d="M384.5 472.6 c-3.6 -2.8 -14.5 -8.5 -18.3 -9.5 -4 -1.1 -2.7 -2.6 2.1 -2.5 7.6 0.1 17.1 4.5 20.5 9.4 1.7 2.6 1.9 3.5 1 4.2 -1.8 1.1 -1.9 1.1 -5.3 -1.6z"/>
  <path d="M428.4 461.6 c-0.3 -1.4 -0.4 -14.8 -0.2 -29.8 0.4 -21 0.8 -28.2 2 -31.2 3.2 -8.6 5.4 -4.3 4.5 8.7 -0.4 4.5 -1.1 16.5 -1.6 26.7 -1.2 21.4 -1.9 28 -3.2 28 -0.5 0 -1.1 -1.1 -1.5 -2.4z"/>
  <path d="M292.1 442.4 c-9.3 -4 -7 -7.2 7.9 -10.5 1.9 -0.4 6.1 -1.7 9.3 -2.8 3.1 -1.1 8.5 -2.3 12 -2.6 3.4 -0.3 10.2 -1.1 15.1 -1.7 8.3 -1.2 8.9 -1.4 9.8 -4 1.2 -3.3 1.8 -3.4 9.4 -0.7 3.2 1.1 7.3 2.4 8.9 2.8 7.8 2.2 8.9 4.1 4 7.1 -1.9 1.2 -3.7 3 -4 4.2 -0.4 1.2 -2.9 3 -6.1 4.5 -5 2.3 -6.8 2.5 -21.2 2.7 -8.6 0.1 -17.5 0.8 -19.7 1.4 -5.8 1.7 -21.3 1.4 -25.4 -0.4z"/>
  <path d="M242.6 438.1 c-5.4 -1.5 -8.9 -4.1 -7.5 -5.6 1.1 -1 16.3 -0.7 19.2 0.4 1.6 0.6 4.5 0.9 6.5 0.6 7.2 -1.1 8.5 3.5 1.5 5.4 -5.2 1.5 -12.7 1.2 -19.7 -0.8z"/>
  <path d="M221.2 437.3 c-3.4 -1.3 -13.9 -27.7 -12.7 -32.2 0.4 -1.4 1.2 -7.1 1.7 -12.6 2.2 -23.8 2.6 -28.2 3.3 -31.5 2.8 -15.2 5.5 -14.5 5.5 1.2 0 8.6 -0.6 11.8 -4.6 25.3 -1.3 4.1 -1.3 5.8 -0.4 9.5 0.7 2.5 1.5 7 1.9 10 0.4 3 1.7 7.5 2.9 10 4.1 8.6 6.5 19.2 4.5 20.3 -0.5 0.2 -1.4 0.2 -2.1 0z"/>
  <path d="M239.8 426.2 c-1.4 -1.5 -3.6 -3.6 -4.7 -4.6 -1.2 -1.1 -2.1 -2.8 -2.1 -3.7 0 -1.5 0.6 -1.7 3 -1.2 2.9 0.5 3 0.5 3 -3.6 0 -2.8 -0.6 -4.7 -2 -6.1 -2.3 -2.3 -2.5 -5.5 -0.5 -9 0.8 -1.4 1.4 -3.3 1.5 -4.3 0 -3.9 12.5 -26.5 18.3 -33.1 4 -4.7 5.4 -5.6 8.1 -5.6 2.1 0 4 -0.8 5.2 -2.1 4.5 -5 17.4 -10.8 26.3 -11.8 4.7 -0.5 5.6 -0.9 5.6 -2.6 0 -1.9 -0.6 -2 -10 -1.9 -5.5 0 -13.5 0.5 -17.9 1 -8.4 1.1 -8.2 0.9 -14.6 10.2 -1.7 2.4 -3 4.5 -3 4.7 0 1.1 -9.2 12.5 -10.1 12.5 -0.5 0 -1.1 1.2 -1.5 2.8 -1 4.3 -7 17.5 -11.3 24.7 -4.5 7.5 -4.5 7.5 -3.2 11.9 0.7 2.3 1.5 5.7 1.8 7.6 0.5 3 0.4 3.3 -1 2.2 -0.8 -0.7 -2.8 -4.1 -4.5 -7.5 -1.6 -3.5 -4.2 -7.1 -5.6 -8 -1.4 -1 -2.6 -2.4 -2.6 -3.1 0 -0.8 1.7 -4 3.9 -7.2 2.1 -3.3 6 -11.1 8.6 -17.4 6.9 -16.8 13.9 -31.1 17 -34.8 2.6 -3.2 6.7 -4.3 8 -2.2 1.1 1.8 3.7 1.1 7.2 -2 3.7 -3.3 5.9 -3.7 8.8 -1.6 1.5 1 6 1.3 17.5 1.4 13.8 0 16.8 -0.3 27.3 -2.9 8.2 -2 14.4 -2.9 20.1 -2.9 7.9 0 8.5 0.2 14.3 3.9 6.2 4 10.5 8.8 11.8 13.1 0.7 2.4 4.1 7.9 5.6 9 1.5 1.2 2.9 5.1 2.9 8.2 0 3.3 5.1 17.2 11.5 31.3 4.6 10.2 6.5 19.6 4.4 22.1 -1.6 2 -5.3 1.7 -7.3 -0.5 -1.6 -1.7 -1.6 -2.4 -0.5 -5.4 1.1 -3.1 1 -3.8 -1 -7 -2 -3.2 -2.4 -3.5 -4.9 -2.6 -2.6 0.9 -3.3 0.4 -10.2 -6.2 -4.1 -4 -8.7 -7.9 -10.2 -8.9 -4.1 -2.5 -6.8 -6.5 -7.6 -11.2 -0.7 -3.9 -1.1 -4.4 -5.2 -6 -2.5 -0.9 -5.8 -1.7 -7.3 -1.7 -1.6 -0.1 -4.3 -1.2 -6.1 -2.6 -3.7 -2.8 -4.7 -3 -9.3 -1.3 -2.3 0.8 -3.6 0.9 -4.3 0.2 -1.7 -1.7 0 -4.5 3.1 -5.1 1.6 -0.3 2.9 -0.9 2.9 -1.4 0 -1.4 -3.4 -1.7 -10.5 -1 -3.8 0.5 -6 0.9 -4.8 1 1.2 0 2.5 0.6 2.9 1.3 0.9 1.5 -5 6.8 -7.7 6.8 -3.5 0 -7.6 2.8 -8.4 5.7 -0.9 3.7 -2.3 5.3 -4.6 5.3 -2.2 0 -5.4 -4.4 -4.6 -6.3 0.3 -0.8 0.2 -1.9 -0.2 -2.6 -1 -1.6 -9 0.4 -9.7 2.4 -0.3 0.8 0.5 3.3 1.7 5.5 2.8 5 2.2 6.5 -4.6 9.9 -4.4 2.3 -4.7 2.7 -4.2 5.7 0.7 4.3 -0.7 5.4 -7.9 5.7 -7 0.3 -8.4 1 -8.4 4.3 0 3.6 -1.7 6.4 -3.9 6.4 -3 0 -3.9 2.1 -3.7 8.5 0.1 5 0.6 6.8 3.4 10.7 1.7 2.6 3.2 4.9 3.2 5.2 0 1.7 -4.9 0.2 -7.2 -2.2z m133.2 -34.8 c0 -0.9 -5.5 -14.3 -8.7 -21.1 -1 -2.1 -4.5 -7.1 -7.8 -11.1 -8.1 -10.1 -9.5 -12.3 -9.5 -15.3 0 -3 -6.3 -8.6 -10.7 -9.5 -2.7 -0.5 -12.6 1.3 -18.8 3.4 -1.6 0.6 -5 1.7 -7.5 2.5 -3.3 1 -4.5 1.9 -4.5 3.3 0 1.6 1 2 6.1 2.5 6.7 0.6 12.4 3.4 12.4 6.1 0 2.4 2.7 2.3 4 -0.2 1.3 -2.4 4.7 -2.6 8 -0.3 6 4 15 12.6 18.5 17.7 2.1 3.1 4.2 5.6 4.7 5.6 0.4 0 2.2 2.5 3.9 5.5 1.7 3 3.7 5.8 4.4 6.3 0.6 0.4 1.7 1.7 2.4 3 1 2 3.1 3.1 3.1 1.6z m-106.5 -17.4 c0.8 -1.3 -2 -2.4 -4.1 -1.6 -2 0.8 -0.9 2.6 1.6 2.6 1 0 2.2 -0.5 2.5 -1z m25.5 -18 c1.6 -1.6 1.8 -2.5 1 -4 -0.6 -1.1 -1.5 -2 -2 -2 -0.8 0 -7.6 2.8 -8.9 3.7 -0.2 0.2 0.4 1.2 1.4 2.3 2.3 2.6 5.9 2.6 8.5 0z"/>
  <path d="M270 426 c-12 -0.9 -18 -2.8 -19.9 -6.2 -1.4 -2.4 -1.3 -2.9 2.8 -9.2 4.6 -7 9.1 -11.4 16.4 -15.8 2.4 -1.5 7.1 -5.2 10.4 -8.1 5 -4.4 7.2 -5.7 12.7 -7.1 3.6 -0.9 7.4 -2.3 8.4 -3.2 4.3 -3.8 12.8 -9.4 14.2 -9.4 0.8 0.1 2.6 0.7 4 1.5 1.4 0.8 3.9 1.4 5.5 1.5 6 0.1 11 2.2 15 6.4 18.3 19.1 23.4 26.6 23.9 35.1 0.1 2.7 -0.2 3 -3.2 3.3 -2.2 0.2 -4.1 -0.3 -5.3 -1.4 -2.2 -2 -6.8 -2.2 -8.3 -0.3 -1.3 1.6 -8.6 3.8 -16.6 5 -9.9 1.5 -22.4 3.7 -27 4.9 -2.5 0.6 -6.1 1.5 -8 2 -5.3 1.4 -14.4 1.7 -25 1z"/>
  <path d="M388.2 356.2 c-5.1 -6.4 -6.4 -8.5 -12.1 -19.5 -6.2 -11.9 -8.5 -15.7 -13.3 -21.4 -2.6 -3.1 -2.9 -6.3 -0.6 -6.3 0.6 0 4.8 3.9 9.4 8.8 4.6 4.8 8.4 8.1 8.4 7.4 0 -0.8 -1.2 -4.3 -2.6 -7.9 -2.9 -7.1 -2.4 -9 2 -7.9 1.7 0.4 3.2 2.2 5 5.9 1.3 2.8 3.6 7.2 4.9 9.7 9.2 16.7 12.7 26 9.8 26 -2 0 -4.1 -1.3 -4.1 -2.4 0 -0.7 -2.2 -4.1 -5 -7.5 -2.7 -3.4 -5 -6.7 -5 -7.2 0 -0.5 -0.4 -0.9 -1 -0.9 -1.2 0 0.8 5.6 5.4 14.7 4 8.1 4.1 8.6 2.3 10.1 -1 0.8 -1.8 0.4 -3.5 -1.6z"/>
  <path d="M158.4 352 c-0.7 -3.3 -3.3 -4 -5.4 -1.5 -0.7 0.8 -2.4 1.5 -3.7 1.5 -2.6 0 -2.8 -1.2 -1.2 -7 0.3 -1 -0.5 -1.6 -2.5 -1.8 -2.5 -0.3 -2.8 -0.6 -2.2 -3.3 1.3 -6.7 17.1 -26 25.5 -31.1 2 -1.2 5.2 -3.5 7.2 -5 3.3 -2.6 4 -2.8 9.3 -2.2 3.1 0.4 5.9 1 6.1 1.4 0.2 0.4 -1.8 4.1 -4.5 8.3 -2.8 4.1 -5 7.8 -5 8.2 0 0.3 2 -0.8 4.4 -2.5 2.5 -1.6 4.9 -3 5.5 -3 1.9 0 1.2 3 -1.7 6.8 -1.6 2 -5.5 7.3 -8.7 11.7 -6.7 9.1 -19.8 22.5 -22 22.5 -0.3 0 -0.8 -1.3 -1.1 -3z"/>
  <path d="M195.4 328.8 c-0.5 -0.7 1.3 -3 4.6 -6 5.3 -4.8 8 -6 8 -3.5 0 1.7 -5.8 7.7 -7.4 7.7 -0.8 0 -1.6 0.7 -2 1.5 -0.7 1.8 -2.2 1.9 -3.2 0.3z"/>
  <path d="M418 306.6 c-9 -3.3 -19.2 -8.5 -20.6 -10.4 -1.8 -2.4 -0.6 -3.5 3 -2.8 1.7 0.4 5.4 1.1 8.3 1.5 8.9 1.5 22.3 9.4 22.3 13.2 0 1.6 -6.3 0.9 -13 -1.5z"/>
  <path d="M133.6 297.8 c-0.1 -0.7 -0.9 -2.9 -1.6 -4.8 -3.6 -10.2 -3.6 -24.9 0 -32.1 2.4 -4.6 3.3 -4.8 6.4 -1.4 l2.4 2.6 1.5 -4.3 c0.8 -2.4 2.2 -6.8 3.2 -9.8 4.5 -14.3 22.5 -32.7 39.4 -40.6 6.1 -2.8 9.2 -2.8 15.9 0 4.8 2 6.7 2.4 8.2 1.6 2.8 -1.5 11 -1.2 16.6 0.7 5.7 1.9 15.3 8.1 18.3 11.8 3.3 4.4 1 6.9 -5 5.6 -4.1 -0.9 -29.4 0.4 -34.4 1.8 -5.7 1.5 -16.5 8 -21.2 12.7 -6.5 6.6 -13.3 17.8 -17.8 29.3 -4.7 12.3 -6.7 14.1 -15.7 14.1 -7.8 0 -8.8 -1.2 -8.8 -10.6 0 -5.8 -0.3 -7.6 -1.5 -8.1 -2.1 -0.7 -2.2 -0.6 -3.7 5 -1.1 4.3 -1 5.4 1.1 11.5 2.9 8.7 2.7 15.6 -0.7 16 -1.2 0.2 -2.4 -0.2 -2.6 -1z"/>
  <path d="M238.2 295.7 c-0.6 -0.7 -1.6 -3.3 -2.3 -5.7 -1.1 -4 -1 -5 1 -8.7 2.9 -5.7 2.5 -5.3 32.3 -35.3 22.3 -22.5 26.9 -26.7 30.5 -27.8 6.9 -2 13.3 -1.5 19.1 1.4 4.3 2.1 5.2 3 5.2 5.2 0 3.5 0.8 4.6 4.6 6.5 3.6 1.9 19.8 18.6 21.9 22.7 2.3 4.4 4.5 5.2 9.9 3.6 3.8 -1.2 5.6 -1.2 11.6 0 8 1.5 18.3 5.7 22 9 1.4 1.2 3.5 2.7 4.8 3.3 2.7 1.4 3.2 7.8 0.6 8.8 -1.9 0.7 -11.1 -2.3 -13.5 -4.3 -0.8 -0.8 -2.3 -1.4 -3.2 -1.4 -0.9 0 -1.8 -0.4 -2.1 -0.9 -1 -1.5 -14.3 -5.4 -16.1 -4.7 -1.5 0.5 -1.4 1.2 1.3 5.9 3.1 5.5 5.3 12.9 5.6 18.7 0.1 3.4 0 3.5 -3.4 3.5 -3.3 0 -3.5 -0.2 -3.8 -3.8 -0.4 -4.3 -4.5 -11.9 -12.5 -23.1 -3.1 -4.3 -5.7 -8.8 -5.7 -9.9 0 -1.2 -3.1 -5.1 -7.7 -9.6 -4.3 -4.2 -10.7 -11 -14.2 -15.1 -3.5 -4.1 -7.1 -7.9 -8 -8.3 -1.1 -0.5 -3.8 0 -7.3 1.3 -4.5 1.7 -6.5 3.2 -9.8 7.5 -2.3 3 -10.5 10.9 -18.2 17.7 -14.1 12.4 -24.2 22.1 -33.2 31.7 -3.9 4.2 -4.7 5.7 -4.3 7.8 0.3 1.5 0.3 3.3 0 4 -0.7 1.7 -3.7 1.7 -5.1 0z"/>
  <path d="M261.8 295.2 c-4.6 -1.7 -9.8 -5.6 -9.8 -7.5 0 -0.5 2.6 -3.5 5.8 -6.6 3.3 -3.1 6.1 -6.1 6.3 -6.7 0.7 -1.7 15.4 -13.4 17 -13.4 0.8 0 1.9 -0.4 2.5 -0.9 0.5 -0.4 3 -1.5 5.6 -2.4 4.5 -1.5 4.7 -1.4 8.2 0.9 6.4 4.4 5.6 6 -11.4 23.2 -10.8 10.9 -15.7 15.2 -17.3 15.1 -1.2 0 -4.3 -0.8 -6.9 -1.7z"/>
  <path d="M347.2 291 c-1.3 -1.1 -4.2 -2.5 -6.4 -3.2 -4.7 -1.4 -16.8 -14 -23.5 -24.6 -4.9 -7.6 -5.2 -9.5 -2.1 -11.6 3.8 -2.7 6.5 -1.9 11.8 3.2 4 3.8 5 5.5 5 8 0 2.9 0.5 3.5 4.8 5.4 12.5 5.6 13.5 6.4 17.3 11.8 2.1 3 3.9 6.5 3.9 7.7 0 5 -6.4 7 -10.8 3.3z"/>
  <path d="M189.7 287 c-0.7 -1.8 -1.9 -3 -2.9 -3 -3 0 -4 -3.4 -1.8 -6.3 1.1 -1.4 2 -2.9 2 -3.4 0 -3.5 24.9 -21.2 31 -22 3.4 -0.5 3.8 -0.2 5.8 3.1 1.2 2 2.7 3.6 3.3 3.6 0.7 0 0.9 0.9 0.6 2.2 -0.5 1.6 0.2 2.9 2.5 5 2.9 2.5 3 2.8 1.2 3.5 -1.1 0.5 -5.3 2.7 -9.4 4.9 -4.1 2.3 -9.1 4.5 -11.1 4.8 -2.1 0.4 -4.3 1.4 -5 2.2 -1.9 2.3 -11.7 8.4 -13.5 8.4 -0.9 0 -2.1 -1.3 -2.7 -3z m16.8 -14.6 c9.7 -5.3 12.1 -6.4 13.7 -6.4 5.2 0 6.4 -3.1 1.9 -5 -3.5 -1.4 -5.4 -0.5 -15.5 7.2 -10.1 7.7 -10.1 9.7 -0.1 4.2z"/>
  <path d="M319.6 282.9 c-6.1 -5.7 -7.6 -7.7 -7.6 -10 0 -3.8 2.3 -3.8 5.8 -0.1 7.1 7.2 14 15.6 13.6 16.4 -1.3 2.1 -4.8 0.2 -11.8 -6.3z"/>
  <path d="M232.8 256.8 c-4 -2.1 -4.8 -3.5 -2.3 -4.4 1.8 -0.7 10.8 4.4 10 5.7 -0.9 1.3 -3.5 0.9 -7.7 -1.3z"/>
 </g>
</svg>